<?xml version="1.0" encoding="UTF-8" standalone="no"?>
<!-- Created with Inkscape (http://www.inkscape.org/) -->

<svg
   xmlns:dc="http://purl.org/dc/elements/1.1/"
   xmlns:cc="http://creativecommons.org/ns#"
   xmlns:rdf="http://www.w3.org/1999/02/22-rdf-syntax-ns#"
   xmlns:svg="http://www.w3.org/2000/svg"
   xmlns="http://www.w3.org/2000/svg"
   xmlns:sodipodi="http://sodipodi.sourceforge.net/DTD/sodipodi-0.dtd"
   xmlns:inkscape="http://www.inkscape.org/namespaces/inkscape"
   id="svg2"
   version="1.1"
   inkscape:version="0.91 r"
   xml:space="preserve"
   width="333.01126"
   height="347.17725"
   viewBox="0 0 333.01126 347.17726"
   sodipodi:docname="planet3.svg"><metadata
     id="metadata8"><rdf:RDF><cc:Work
         rdf:about=""><dc:format>image/svg+xml</dc:format><dc:type
           rdf:resource="http://purl.org/dc/dcmitype/StillImage" /><dc:title></dc:title></cc:Work></rdf:RDF></metadata><defs
     id="defs6" /><sodipodi:namedview
     pagecolor="#ffffff"
     bordercolor="#666666"
     borderopacity="1"
     objecttolerance="10"
     gridtolerance="10"
     guidetolerance="10"
     inkscape:pageopacity="0"
     inkscape:pageshadow="2"
     inkscape:window-width="1920"
     inkscape:window-height="1028"
     id="namedview4"
     showgrid="false"
     fit-margin-top="0"
     fit-margin-left="0"
     fit-margin-right="0"
     fit-margin-bottom="0"
     inkscape:zoom="0.19265306"
     inkscape:cx="-2289.9652"
     inkscape:cy="-519.28183"
     inkscape:window-x="0"
     inkscape:window-y="25"
     inkscape:window-maximized="1"
     inkscape:current-layer="g10" /><g
     id="g10"
     inkscape:groupmode="layer"
     inkscape:label="ink_ext_XXXXXX"
     transform="matrix(1.25,0,0,-1.25,-3752.4561,1267.7815)"><path
       inkscape:connector-curvature="0"
       id="path230"
       style="fill:#ffffff;fill-opacity:1;fill-rule:nonzero;stroke:none"
       d="m 2192.0358,-652.37531 c 1.01,0.3179 1.312,1.1519 1.312,2.1039 0,0.898 -0.29,2.239 -1.332,2.239 -1.876,0 -2.702,-3.0289 -3.001,-5.3 l 3.021,0.9571 z m 8.002,3.1172 c 0,-3.2442 -1.81,-5.3883 -6.321,-6.3172 l -4.733,-0.977 c 0.364,-2.0402 1.645,-3.0371 3.774,-3.0371 2.607,0 4.352,1.968 4.352,1.968 0,0 1.33,-0.7418 1.33,-2.2649 0,-2.7019 -4.144,-5.6332 -8.964,-5.6332 -4.89,0 -8.081,3.0903 -8.081,8.3082 0,6.0282 4.271,14.2059 11.872,14.2059 4.163,0 6.771,-2.466 6.771,-6.2527" /><path
       inkscape:connector-curvature="0"
       id="path232"
       style="fill:#ffffff;fill-opacity:1;fill-rule:nonzero;stroke:none"
       d="m 2212.7808,-643.00541 c 3.835,0 6.717,-2.0328 6.717,-4.6719 0,-3.3 -3.995,-4.5058 -3.995,-4.5058 0,0 -1.172,3.6039 -3.858,3.6039 -1.82,0 -2.868,-1.8411 -2.868,-5.7672 0,-3.616 0.952,-5.243 3.291,-5.243 2.401,0 3.878,1.6352 3.878,1.6352 0,0 1.332,-0.7411 1.332,-2.2223 0,-2.5859 -3.98,-5.343 -8.614,-5.343 -4.934,0 -7.974,3.0903 -7.974,8.2274 0,6.109 4.367,14.2867 12.094,14.2867 l 0,0" /><path
       inkscape:connector-curvature="0"
       id="path234"
       style="fill:#ffffff;fill-opacity:1;fill-rule:nonzero;stroke:none"
       d="m 2231.2078,-638.19251 c 0.924,0 1.539,-0.7047 1.539,-0.7047 l -0.722,-4.543 4.812,0 -1.085,-3.4633 c -0.352,-1.1148 -0.906,-1.7308 -2.034,-1.7308 l -2.514,0 -1.402,-8.8512 c -0.228,-1.4309 0.084,-2.093 1.058,-2.1039 0.885,-0.006 1.758,0.5402 1.758,0.5402 0,0 1.343,-0.748 1.343,-2.1523 0,-2.1668 -3.09,-4.318 -7.001,-4.318 -4.148,0 -5.821,2.5383 -5.118,6.9793 l 1.566,9.9059 -2.61,0 1.136,3.6129 c 0.292,0.9269 1.057,1.5812 1.993,1.5812 l 1.269,0 1.521,4.1821 c 1.883,0.4617 3.637,1.0656 4.491,1.0656" /><path
       inkscape:connector-curvature="0"
       id="path236"
       style="fill:#ffffff;fill-opacity:1;fill-rule:nonzero;stroke:none"
       d="m 2246.5718,-652.37531 c 1.009,0.3179 1.312,1.1519 1.312,2.1039 0,0.898 -0.292,2.239 -1.332,2.239 -1.876,0 -2.705,-3.0289 -3.002,-5.3 l 3.022,0.9571 z m 8,3.1172 c 0,-3.2442 -1.809,-5.3883 -6.32,-6.3172 l -4.734,-0.977 c 0.366,-2.0402 1.647,-3.0371 3.773,-3.0371 2.607,0 4.353,1.968 4.353,1.968 0,0 1.332,-0.7418 1.332,-2.2649 0,-2.7019 -4.144,-5.6332 -8.964,-5.6332 -4.892,0 -8.081,3.0903 -8.081,8.3082 0,6.0282 4.269,14.2059 11.872,14.2059 4.162,0 6.771,-2.466 6.771,-6.2527 l 0,0" /><path
       inkscape:connector-curvature="0"
       id="path238"
       style="fill:#ffffff;fill-opacity:1;fill-rule:nonzero;stroke:none"
       d="m 2265.8788,-652.37531 c 1.009,0.3179 1.312,1.1519 1.312,2.1039 0,0.898 -0.294,2.239 -1.332,2.239 -1.876,0 -2.705,-3.0289 -3.003,-5.3 l 3.023,0.9571 z m 7.999,3.1172 c 0,-3.2442 -1.809,-5.3883 -6.319,-6.3172 l -4.734,-0.977 c 0.364,-2.0402 1.646,-3.0371 3.773,-3.0371 2.61,0 4.352,1.968 4.352,1.968 0,0 1.333,-0.7418 1.333,-2.2649 0,-2.7019 -4.144,-5.6332 -8.964,-5.6332 -4.892,0 -8.083,3.0903 -8.083,8.3082 0,6.0282 4.273,14.2059 11.872,14.2059 4.164,0 6.773,-2.466 6.773,-6.2527 l 0,0" /><g
       id="g4680"
       transform="translate(1013.2203,1108.7288)"><path
         d="m 2255.0396,-233.75163 c -0.052,1.32 -0.121,2.636 -0.21,3.946 l -0.017,0.258 c -4.869,69.135 -62.49,123.711 -132.864,123.711 -70.474,0 -128.156,-54.731 -132.883,-124.006 -0.02,-0.296 -0.038,-0.594 -0.056,-0.891 -0.065,-1.058 -0.118,-2.118 -0.158,-3.182 -0.013,-0.356 -0.03,-0.711 -0.04,-1.068 -0.041,-1.348 -0.067,-2.7 -0.067,-4.058 0,-1.655 0.04,-3.3 0.1,-4.94 0.01,-0.258 0.018,-0.517 0.03,-0.775 1.915,-45.353 26.504,-84.834 62.727,-107.408 l 0.054,-0.034 c 3.534,-2.2 7.179,-4.239 10.925,-6.107 0.125,-0.063 0.251,-0.125 0.377,-0.188 1.211,-0.599 2.431,-1.184 3.662,-1.747 l 0,-8e-4 c 1.294,-0.591 2.598,-1.163 3.913,-1.714 l 0.034,-0.014 c 1.204,-0.504 2.419,-0.987 3.641,-1.456 0.227,-0.087 0.454,-0.173 0.682,-0.259 1.109,-0.419 2.224,-0.825 3.347,-1.215 0.159,-0.055 0.316,-0.112 0.475,-0.167 1.3,-0.446 2.608,-0.874 3.926,-1.281 l 0.226,-0.067 c 1.183,-0.362 2.373,-0.706 3.57,-1.036 0.311,-0.086 0.623,-0.169 0.935,-0.253 1.04,-0.279 2.085,-0.545 3.135,-0.799 0.275,-0.067 0.547,-0.136 0.822,-0.201 1.312,-0.309 2.63,-0.601 3.957,-0.871 0.112,-0.023 0.225,-0.042 0.338,-0.064 1.185,-0.238 2.377,-0.458 3.574,-0.664 0.374,-0.064 0.749,-0.125 1.124,-0.186 0.999,-0.163 2.003,-0.315 3.009,-0.456 0.357,-0.049 0.712,-0.102 1.07,-0.149 1.331,-0.175 2.667,-0.336 4.01,-0.472 0.097,-0.01 0.196,-0.016 0.293,-0.026 1.238,-0.122 2.481,-0.224 3.729,-0.312 0.408,-0.029 0.817,-0.053 1.227,-0.078 0.99,-0.061 1.984,-0.11 2.981,-0.15 0.405,-0.016 0.809,-0.033 1.215,-0.046 1.36,-0.041 2.724,-0.068 4.094,-0.068 1.107,0 2.211,0.015 3.312,0.042 0.379,0.009 0.755,0.027 1.134,0.04 0.718,0.023 1.436,0.046 2.152,0.081 0.462,0.023 0.921,0.054 1.382,0.081 0.626,0.038 1.252,0.074 1.876,0.119 0.504,0.037 1.006,0.082 1.509,0.124 0.573,0.049 1.147,0.097 1.718,0.153 0.536,0.052 1.069,0.111 1.603,0.169 0.529,0.059 1.059,0.117 1.587,0.182 0.565,0.069 1.128,0.143 1.691,0.219 0.487,0.065 0.973,0.133 1.459,0.204 0.595,0.087 1.189,0.178 1.782,0.273 0.44,0.07 0.88,0.144 1.319,0.218 0.63,0.108 1.26,0.218 1.887,0.335 0.384,0.071 0.767,0.145 1.149,0.22 0.678,0.131 1.354,0.266 2.027,0.407 0.305,0.065 0.609,0.133 0.913,0.199 0.747,0.163 1.492,0.328 2.233,0.503 0.18,0.043 0.359,0.089 0.538,0.132 55.46,13.344 97.403,61.379 101.584,119.869 l 0.01,0.131 c 0.096,1.372 0.169,2.75 0.224,4.133 0.013,0.331 0.027,0.663 0.038,0.995 0.047,1.454 0.079,2.911 0.079,4.375 0,1.443 -0.031,2.878 -0.077,4.309 -0.01,0.327 -0.024,0.654 -0.037,0.981"
         style="fill:#253a4a;fill-opacity:1;fill-rule:nonzero;stroke:none"
         id="path30"
         inkscape:connector-curvature="0" /><path
         d="m 2255.1536,-227.70763 c 0,-73.567 -59.638,-133.205 -133.205,-133.205 -73.567,0 -133.204,59.638 -133.204,133.205 0,73.567 59.637,133.204003 133.204,133.204003 73.567,0 133.205,-59.637003 133.205,-133.204003"
         style="fill:#c8c4bc;fill-opacity:1;fill-rule:nonzero;stroke:none"
         id="path86"
         inkscape:connector-curvature="0" /><path
         d="m 2007.5856,-296.01063 c 23.266,-38.869 65.768,-64.902 114.363,-64.902 33.998,0 65.004,12.756 88.541,33.718 -66.526,-15.492 -139.805,0.25 -202.904,31.184"
         style="fill:#b2a99d;fill-opacity:1;fill-rule:nonzero;stroke:none"
         id="path144"
         inkscape:connector-curvature="0" /><path
         d="m 2019.1236,-151.78163 c 6.23,-4.773 12.66,-9.649 20.215,-11.773 8.133,-2.287 16.77,-1.168 25.218,-1.133 15.363,0.066 30.486,-3.505 45.764,-5.108 32.76,-3.44 66.442,2.376 96.15,16.605 6.238,2.987 12.409,6.483 17.565,11.021 -11.96,14.26 -26.844,25.978 -43.741,34.225 -15.679,-5.33 -32.426,-8.595 -48.661,-11.089 -19.1,-2.934 -38.646,-5.266 -57.668,-1.86 -7.352,1.316 -14.647,3.621 -21.403,6.904 -14.689,-8.982 -27.496,-20.73 -37.71,-34.518 1.424,-1.092 2.848,-2.183 4.271,-3.274"
         style="fill:#b2a99d;fill-opacity:1;fill-rule:nonzero;stroke:none"
         id="path146"
         inkscape:connector-curvature="0" /><path
         d="m 2250.0406,-191.18263 c -18.583,-12.734 -39.463,-22.12 -61.392,-27.291 -62.882,-14.828 -128.231,4.345 -189.979,23.352 -1.809,0.557 -3.628,1.131 -5.442,1.722 -2.911,-10.949 -4.483,-22.443 -4.483,-34.308 0,-7.206 0.59,-14.27 1.691,-21.165 21.577,-15.149 49.313,-22.538 75.834,-27.11 61.025,-10.516 126.524,-10.728 183.579,11.073 3.43,11.812 5.305,24.284 5.305,37.202 0,12.671 -1.808,24.914 -5.113,36.525"
         style="fill:#b2a99d;fill-opacity:1;fill-rule:nonzero;stroke:none"
         id="path148"
         inkscape:connector-curvature="0" /></g></g></svg>