<?xml version="1.0" encoding="UTF-8" standalone="no"?>
<!-- Created with Inkscape (http://www.inkscape.org/) -->

<svg
   xmlns:dc="http://purl.org/dc/elements/1.1/"
   xmlns:cc="http://creativecommons.org/ns#"
   xmlns:rdf="http://www.w3.org/1999/02/22-rdf-syntax-ns#"
   xmlns:svg="http://www.w3.org/2000/svg"
   xmlns="http://www.w3.org/2000/svg"
   xmlns:sodipodi="http://sodipodi.sourceforge.net/DTD/sodipodi-0.dtd"
   xmlns:inkscape="http://www.inkscape.org/namespaces/inkscape"
   id="svg2"
   version="1.1"
   inkscape:version="0.91 r"
   xml:space="preserve"
   width="1726.8909"
   height="1563.7322"
   viewBox="0 0 1726.8909 1563.7322"
   sodipodi:docname="planets.svg"><metadata
     id="metadata8"><rdf:RDF><cc:Work
         rdf:about=""><dc:format>image/svg+xml</dc:format><dc:type
           rdf:resource="http://purl.org/dc/dcmitype/StillImage" /><dc:title></dc:title></cc:Work></rdf:RDF></metadata><defs
     id="defs6" /><sodipodi:namedview
     pagecolor="#ffffff"
     bordercolor="#666666"
     borderopacity="1"
     objecttolerance="10"
     gridtolerance="10"
     guidetolerance="10"
     inkscape:pageopacity="0"
     inkscape:pageshadow="2"
     inkscape:window-width="1920"
     inkscape:window-height="1028"
     id="namedview4"
     showgrid="false"
     fit-margin-top="0"
     fit-margin-left="0"
     fit-margin-right="0"
     fit-margin-bottom="0"
     inkscape:zoom="0.19265306"
     inkscape:cx="-3.2890747"
     inkscape:cy="110.7137"
     inkscape:window-x="0"
     inkscape:window-y="25"
     inkscape:window-maximized="1"
     inkscape:current-layer="g10" /><g
     id="g10"
     inkscape:groupmode="layer"
     inkscape:label="ink_ext_XXXXXX"
     transform="matrix(1.25,0,0,-1.25,-2358.5765,1854.3408)"><g
       id="g4542"
       transform="translate(1486.6102,-323.89831)"><path
         d="m 830.548,787.022 c -0.022,0.652 -0.043,1.304 -0.074,1.953 -0.027,0.548 -0.062,1.093 -0.095,1.639 -0.03,0.506 -0.06,1.012 -0.096,1.517 -0.046,0.638 -0.099,1.273 -0.154,1.909 -0.034,0.391 -0.067,0.783 -0.104,1.174 -0.069,0.725 -0.145,1.448 -0.225,2.17 -0.031,0.272 -0.061,0.544 -0.093,0.815 -0.098,0.829 -0.203,1.656 -0.315,2.48 -0.016,0.119 -0.033,0.237 -0.05,0.355 -9.024,64.79 -64.64,114.665 -131.914,114.665 -69.512,0 -126.577,-53.248 -132.658,-121.177 -0.029,-0.316 -0.058,-0.632 -0.084,-0.949 -0.05,-0.605 -0.095,-1.212 -0.137,-1.82 -0.034,-0.489 -0.064,-0.978 -0.093,-1.469 -0.029,-0.508 -0.058,-1.016 -0.082,-1.526 -0.029,-0.638 -0.052,-1.277 -0.072,-1.916 -0.013,-0.395 -0.029,-0.788 -0.038,-1.183 -0.025,-1.053 -0.04,-2.107 -0.04,-3.165 0,-1.292 0.023,-2.578 0.059,-3.861 0.01,-0.323 0.025,-0.645 0.037,-0.967 0.036,-1.006 0.081,-2.01 0.139,-3.01 0.017,-0.279 0.035,-0.557 0.053,-0.836 0.074,-1.14 0.161,-2.277 0.263,-3.41 0.009,-0.098 0.017,-0.196 0.026,-0.293 6.245,-67.763 63.235,-120.827 132.627,-120.827 69.306,0 126.24,52.931 132.605,120.572 0.017,0.182 0.032,0.365 0.048,0.547 0.097,1.071 0.18,2.146 0.251,3.225 0.022,0.332 0.044,0.664 0.064,0.997 0.056,0.974 0.101,1.951 0.136,2.93 0.013,0.349 0.03,0.697 0.04,1.047 0.037,1.291 0.061,2.586 0.061,3.886 0,1.092 -0.015,2.181 -0.042,3.267 -0.01,0.421 -0.029,0.841 -0.043,1.261"
         style="fill:#253a4a;fill-opacity:1;fill-rule:nonzero;stroke:none"
         id="path18"
         inkscape:connector-curvature="0" /><path
         d="m 830.633,793.827 c 0,-73.567 -59.638,-133.204 -133.205,-133.204 -73.567,0 -133.204,59.637 -133.204,133.204 0,73.567 59.637,133.205 133.204,133.205 73.567,0 133.205,-59.638 133.205,-133.205"
         style="fill:#fabdb4;fill-opacity:1;fill-rule:nonzero;stroke:none"
         id="path80"
         inkscape:connector-curvature="0" /><path
         d="m 830.633,793.827 c 0,16.598 -3.06,32.474 -8.607,47.129 C 758.91,786.612 688.467,739.599 608.569,717.41 c -5.648,-1.569 -11.402,-2.997 -17.203,-4.146 17.148,-22.54 41.313,-39.424 69.24,-47.445 9.044,1.873 18.005,4.132 26.836,6.944 52.903,16.841 97.495,51.257 139.196,88.635 2.597,10.383 3.995,21.241 3.995,32.429"
         style="fill:#f4aa95;fill-opacity:1;fill-rule:nonzero;stroke:none"
         id="path96"
         inkscape:connector-curvature="0" /><path
         d="m 776.971,840.248 c 10.687,9.294 20.275,19.817 28.653,31.232 -17.837,24.809 -43.969,43.244 -74.361,51.203 -47.209,-38.04 -101.687,-67.036 -159.602,-84.963 -4.798,-13.747 -7.437,-28.508 -7.437,-43.893 0,-11.03 1.365,-21.736 3.892,-31.986 44.178,4.877 87.701,15.707 128.961,32.235 28.689,11.492 56.575,25.892 79.894,46.172"
         style="fill:#f4aa95;fill-opacity:1;fill-rule:nonzero;stroke:none"
         id="path98"
         inkscape:connector-curvature="0" /></g><g
       id="g4515"
       transform="matrix(1.0000113,0,0,1.0000113,2601.4567,527.47803)"><path
         d="m 317.886,649.29 c 73.567,0 133.205,59.637 133.205,133.204 0,73.567 -59.638,133.205 -133.205,133.205 -73.567,0 -133.204,-59.638 -133.204,-133.205 0,-73.567 59.637,-133.204 133.204,-133.204"
         style="fill:#253a4a;fill-opacity:1;fill-rule:nonzero;stroke:none"
         id="path16"
         inkscape:connector-curvature="0" /><path
         d="m 451.091,793.827 c 0,-73.567 -59.638,-133.204 -133.205,-133.204 -73.567,0 -133.204,59.637 -133.204,133.204 0,73.567 59.637,133.205 133.204,133.205 73.567,0 133.205,-59.638 133.205,-133.205"
         style="fill:#c78659;fill-opacity:1;fill-rule:nonzero;stroke:none"
         id="path78"
         inkscape:connector-curvature="0" /><path
         d="m 313.566,832.146 c 0,-26.201 -21.241,-47.442 -47.443,-47.442 -26.202,0 -47.443,21.241 -47.443,47.442 0,26.202 21.241,47.443 47.443,47.443 26.202,0 47.443,-21.241 47.443,-47.443"
         style="fill:#d69b70;fill-opacity:1;fill-rule:nonzero;stroke:none"
         id="path100"
         inkscape:connector-curvature="0" /><path
         d="m 335.462,890.538 c 0,-8.062 -6.535,-14.598 -14.597,-14.598 -8.062,0 -14.598,6.536 -14.598,14.598 0,8.062 6.536,14.598 14.598,14.598 8.062,0 14.597,-6.536 14.597,-14.598"
         style="fill:#d69b70;fill-opacity:1;fill-rule:nonzero;stroke:none"
         id="path102"
         inkscape:connector-curvature="0" /><path
         d="m 386.555,844.92 c 0,-14.109 -11.438,-25.546 -25.547,-25.546 -14.108,0 -25.546,11.437 -25.546,25.546 0,14.108 11.438,25.546 25.546,25.546 14.109,0 25.547,-11.438 25.547,-25.546"
         style="fill:#d69b70;fill-opacity:1;fill-rule:nonzero;stroke:none"
         id="path104"
         inkscape:connector-curvature="0" /><path
         d="m 399.328,759.158 c 0,-23.179 -18.79,-41.969 -41.969,-41.969 -23.179,0 -41.969,18.79 -41.969,41.969 0,23.178 18.79,41.968 41.969,41.968 23.179,0 41.969,-18.79 41.969,-41.968"
         style="fill:#d69b70;fill-opacity:1;fill-rule:nonzero;stroke:none"
         id="path106"
         inkscape:connector-curvature="0" /><path
         d="m 430.348,812.075 c 0,-10.078 -8.17,-18.248 -18.247,-18.248 -10.078,0 -18.248,8.17 -18.248,18.248 0,10.077 8.17,18.247 18.248,18.247 10.077,0 18.247,-8.17 18.247,-18.247"
         style="fill:#d69b70;fill-opacity:1;fill-rule:nonzero;stroke:none"
         id="path108"
         inkscape:connector-curvature="0" /><path
         d="m 298.968,729.962 c 0,-17.132 -13.888,-31.02 -31.02,-31.02 -17.132,0 -31.021,13.888 -31.021,31.02 0,17.132 13.889,31.02 31.021,31.02 17.132,0 31.02,-13.888 31.02,-31.02"
         style="fill:#d69b70;fill-opacity:1;fill-rule:nonzero;stroke:none"
         id="path110"
         inkscape:connector-curvature="0" /><path
         d="m 339.112,697.117 c 0,-9.07 -7.353,-16.422 -16.423,-16.422 -9.07,0 -16.422,7.352 -16.422,16.422 0,9.07 7.352,16.423 16.422,16.423 9.07,0 16.423,-7.353 16.423,-16.423"
         style="fill:#d69b70;fill-opacity:1;fill-rule:nonzero;stroke:none"
         id="path112"
         inkscape:connector-curvature="0" /><path
         d="m 264.927,777.405 c 0,-8.062 -6.535,-14.598 -14.597,-14.598 -8.062,0 -14.598,6.536 -14.598,14.598 0,8.062 6.536,14.598 14.598,14.598 8.062,0 14.597,-6.536 14.597,-14.598"
         style="fill:#d69b70;fill-opacity:1;fill-rule:nonzero;stroke:none"
         id="path114"
         inkscape:connector-curvature="0" /></g><g
       id="g4569"
       transform="translate(1258.2203,556.44067)"><path
         d="m 1081.77,649.29 c 24.99,0 48.36,6.885 68.34,18.851 l 0,0.001 c 0.75,0.449 1.5,0.907 2.24,1.37 0.14,0.09 0.28,0.178 0.43,0.268 0.65,0.411 1.29,0.828 1.94,1.25 0.23,0.15 0.46,0.301 0.68,0.452 0.58,0.386 1.16,0.776 1.73,1.17 0.29,0.197 0.58,0.396 0.86,0.595 0.53,0.367 1.05,0.736 1.57,1.11 0.33,0.238 0.66,0.478 0.98,0.718 0.48,0.352 0.96,0.704 1.43,1.062 0.37,0.276 0.73,0.557 1.09,0.836 0.44,0.336 0.87,0.671 1.3,1.011 0.41,0.318 0.8,0.64 1.2,0.962 0.39,0.316 0.78,0.631 1.17,0.952 0.45,0.372 0.89,0.751 1.33,1.128 0.34,0.283 0.67,0.561 1,0.847 0.64,0.554 1.27,1.117 1.9,1.683 27.03,24.38 44.02,59.673 44.02,98.938 0,73.567 -59.64,133.205 -133.21,133.205 -73.56,0 -133.202,-59.638 -133.202,-133.205 0,-73.567 59.642,-133.204 133.202,-133.204"
         style="fill:#253a4a;fill-opacity:1;fill-rule:nonzero;stroke:none"
         id="path20"
         inkscape:connector-curvature="0" /><path
         d="m 1214.98,793.827 c 0,-73.567 -59.64,-133.204 -133.21,-133.204 -73.56,0 -133.202,59.637 -133.202,133.204 0,73.567 59.642,133.205 133.202,133.205 73.57,0 133.21,-59.638 133.21,-133.205"
         style="fill:#86d7dd;fill-opacity:1;fill-rule:nonzero;stroke:none"
         id="path82"
         inkscape:connector-curvature="0" /><g
         id="g4564"><path
           inkscape:connector-curvature="0"
           id="path116"
           style="fill:#67c374;fill-opacity:1;fill-rule:nonzero;stroke:none"
           d="m 1124.26,911.57 c -12.63,-6.193 -27.05,-16.995 -23.96,-30.709 0.84,-3.726 3.01,-7.306 2.47,-11.088 -1.3,-9.185 -17.27,-15.063 -12.27,-22.88 17.67,-8.485 40.55,-4.444 54.24,9.583 3.46,3.537 6.5,7.726 10.97,9.843 12.13,5.75 26.84,-6.615 39.4,-2.513 -14.68,23.727 -36.6,42.491 -62.68,53.228 -2.24,-2.251 -5.34,-4.072 -8.17,-5.464" /><path
           inkscape:connector-curvature="0"
           id="path118"
           style="fill:#67c374;fill-opacity:1;fill-rule:nonzero;stroke:none"
           d="m 962.334,852.807 c 3.689,-2.265 7.701,-4.028 11.807,-5.142 14.959,-4.061 30.819,-1.642 46.119,0.801 9.58,5.349 -0.38,20.211 2.1,30.897 1.01,4.334 4.17,7.813 6.01,11.862 3.53,7.747 1.91,15.972 -1.88,23.786 -27.88,-12.739 -50.594,-34.793 -64.156,-62.204" /><path
           inkscape:connector-curvature="0"
           id="path120"
           style="fill:#67c374;fill-opacity:1;fill-rule:nonzero;stroke:none"
           d="m 1171.33,695.222 c 0.11,19.187 16.85,39.46 6.22,55.403 -5.63,8.435 -17.19,11.524 -22.45,20.193 -4.5,7.423 -3.57,17.729 -9.68,23.897 -3.43,3.467 -8.44,4.851 -13.28,5.44 -22.18,2.698 -45.4,-9.895 -55.24,-29.952 -2.6,-5.295 -4.38,-11.086 -8.04,-15.707 -12,-15.12 -39.78,-12.923 -47.6,-30.569 -4.04,-9.11 -0.24,-20.379 7.2,-27 7.45,-6.621 17.76,-9.198 27.72,-9.399 4.03,-0.081 8.3,0.137 11.84,-1.796 4.55,-2.475 6.63,-7.732 8.79,-12.432 2.03,-4.419 4.41,-8.627 7.09,-12.624 33.64,0.529 64.26,13.493 87.43,34.546" /></g></g><g
       id="g4548"
       transform="translate(2811.2712,-45.677966)"><g
         id="g4527"><path
           inkscape:connector-curvature="0"
           id="path22"
           style="fill:#253a4a;fill-opacity:1;fill-rule:nonzero;stroke:none"
           d="m 317.886,353.685 c 73.567,0 133.205,59.638 133.205,133.204 0,73.567 -59.638,133.205 -133.205,133.205 -73.567,0 -133.204,-59.638 -133.204,-133.205 0,-73.566 59.637,-133.204 133.204,-133.204" /><path
           inkscape:connector-curvature="0"
           id="path84"
           style="fill:#e94c36;fill-opacity:1;fill-rule:nonzero;stroke:none"
           d="m 451.091,498.223 c 0,-73.567 -59.638,-133.205 -133.205,-133.205 -73.567,0 -133.204,59.638 -133.204,133.205 0,73.567 59.637,133.204 133.204,133.204 73.567,0 133.205,-59.637 133.205,-133.204" /><path
           inkscape:connector-curvature="0"
           id="path122"
           style="fill:#ca3f32;fill-opacity:1;fill-rule:nonzero;stroke:none"
           d="m 282.546,551.14 c 0,-8.063 -6.536,-14.598 -14.598,-14.598 -8.062,0 -14.598,6.535 -14.598,14.598 0,8.062 6.536,14.597 14.598,14.597 8.062,0 14.598,-6.535 14.598,-14.597" /><path
           inkscape:connector-curvature="0"
           id="path124"
           style="fill:#ca3f32;fill-opacity:1;fill-rule:nonzero;stroke:none"
           d="m 375.606,574.861 c 0,-21.163 -17.156,-38.319 -38.319,-38.319 -21.163,0 -38.319,17.156 -38.319,38.319 0,21.163 17.156,38.319 38.319,38.319 21.163,0 38.319,-17.156 38.319,-38.319" /><path
           inkscape:connector-curvature="0"
           id="path126"
           style="fill:#ca3f32;fill-opacity:1;fill-rule:nonzero;stroke:none"
           d="m 284.37,474.501 c 0,-22.17 -17.973,-40.144 -40.144,-40.144 -22.17,0 -40.143,17.974 -40.143,40.144 0,22.171 17.973,40.144 40.143,40.144 22.171,0 40.144,-17.973 40.144,-40.144" /><path
           inkscape:connector-curvature="0"
           id="path128"
           style="fill:#ca3f32;fill-opacity:1;fill-rule:nonzero;stroke:none"
           d="m 339.112,490.924 c 0,-13.101 -10.621,-23.722 -23.722,-23.722 -13.1,0 -23.721,10.621 -23.721,23.722 0,13.101 10.621,23.721 23.721,23.721 13.101,0 23.722,-10.62 23.722,-23.721" /><path
           inkscape:connector-curvature="0"
           id="path130"
           style="fill:#ca3f32;fill-opacity:1;fill-rule:nonzero;stroke:none"
           d="m 348.235,417.935 c 0,-17.132 -13.888,-31.02 -31.02,-31.02 -17.132,0 -31.02,13.888 -31.02,31.02 0,17.132 13.888,31.02 31.02,31.02 17.132,0 31.02,-13.888 31.02,-31.02" /><path
           inkscape:connector-curvature="0"
           id="path132"
           style="fill:#ca3f32;fill-opacity:1;fill-rule:nonzero;stroke:none"
           d="m 421.224,479.976 c 0,-19.148 -15.522,-34.67 -34.669,-34.67 -19.148,0 -34.67,15.522 -34.67,34.67 0,19.147 15.522,34.669 34.67,34.669 19.147,0 34.669,-15.522 34.669,-34.669" /><path
           inkscape:connector-curvature="0"
           id="path134"
           style="fill:#ca3f32;fill-opacity:1;fill-rule:nonzero;stroke:none"
           d="m 412.101,545.666 c 0,-7.055 -5.719,-12.774 -12.773,-12.774 -7.055,0 -12.773,5.719 -12.773,12.774 0,7.054 5.718,12.772 12.773,12.772 7.054,0 12.773,-5.718 12.773,-12.772" /><path
           inkscape:connector-curvature="0"
           id="path136"
           style="fill:#ca3f32;fill-opacity:1;fill-rule:nonzero;stroke:none"
           d="m 293.494,600.407 c 0,-7.054 -5.719,-12.773 -12.773,-12.773 -7.055,0 -12.773,5.719 -12.773,12.773 0,7.054 5.718,12.773 12.773,12.773 7.054,0 12.773,-5.719 12.773,-12.773" /><path
           inkscape:connector-curvature="0"
           id="path138"
           style="fill:#ca3f32;fill-opacity:1;fill-rule:nonzero;stroke:none"
           d="m 270.402,538.366 c 0,-8.062 -6.536,-14.597 -14.598,-14.597 -8.062,0 -14.598,6.535 -14.598,14.597 0,8.063 6.536,14.598 14.598,14.598 8.062,0 14.598,-6.535 14.598,-14.598" /><path
           inkscape:connector-curvature="0"
           id="path140"
           style="fill:#ca3f32;fill-opacity:1;fill-rule:nonzero;stroke:none"
           d="m 388.379,416.11 c 0,-6.046 -4.901,-10.948 -10.948,-10.948 -6.047,0 -10.948,4.902 -10.948,10.948 0,6.047 4.901,10.949 10.948,10.949 6.047,0 10.948,-4.902 10.948,-10.949" /><path
           inkscape:connector-curvature="0"
           id="path142"
           style="fill:#ca3f32;fill-opacity:1;fill-rule:nonzero;stroke:none"
           d="m 269.772,412.461 c 0,-5.039 -4.084,-9.124 -9.123,-9.124 -5.039,0 -9.124,4.085 -9.124,9.124 0,5.039 4.085,9.123 9.124,9.123 5.039,0 9.123,-4.084 9.123,-9.123" /></g></g><g
       id="g4672"
       transform="translate(1013.2204,394.49152)"><path
         d="m 1214.56,476.351 c 0.16,2.015 0.27,4.044 0.34,6.083 l 0,0.225 c 0.05,1.406 0.08,2.815 0.08,4.23 0,1.583 -0.04,3.156 -0.09,4.725 -0.02,0.358 -0.03,0.715 -0.05,1.071 -0.06,1.563 -0.15,3.12 -0.27,4.668 -0.01,0.097 -0.02,0.193 -0.03,0.29 -0.12,1.512 -0.27,3.015 -0.44,4.512 -0.03,0.254 -0.05,0.508 -0.09,0.761 -0.19,1.598 -0.4,3.189 -0.65,4.77 l -0.02,0.138 c -0.26,1.628 -0.55,3.245 -0.87,4.853 l -0.03,0.167 c -1.79,9.053 -4.49,17.779 -8.01,26.071 45.61,2.405 76.18,-2.467 78.89,-14.835 2.77,-12.686 -24.36,-30.45 -68.76,-47.729 z m -321.075,-37.6 c -2.482,11.337 18.953,26.73 55.222,42.209 0.907,-20.711 6.538,-40.195 15.85,-57.397 -41.266,-1.466 -68.522,3.538 -71.072,15.188 z m 55.229,54.265 0.007,0.185 -0.007,-0.185 z m -0.106,-3.014 -0.003,-0.077 0.004,0.195 -0.001,-0.118 z m 240.102,76.32 c -13.59,18.262 -31.74,32.921 -52.78,42.293 l 0,10e-4 c -16.55,7.373 -34.87,11.478 -54.16,11.478 -65.13,0 -119.329,-46.745 -130.908,-108.513 -51.212,-24.685 -81.838,-53.355 -76.652,-77.049 5.425,-24.785 48.699,-38.166 109.761,-38.064 15.92,-17.211 36.319,-30.208 59.359,-37.141 0.11,-0.035 0.23,-0.07 0.35,-0.105 1.05,-0.312 2.1,-0.611 3.15,-0.897 0.18,-0.049 0.36,-0.098 0.55,-0.147 1.02,-0.274 2.06,-0.536 3.1,-0.786 0.17,-0.042 0.34,-0.086 0.52,-0.127 1.16,-0.275 2.33,-0.537 3.5,-0.781 l 0.09,-0.02 c 2.43,-0.504 4.89,-0.94 7.36,-1.309 0.31,-0.047 0.63,-0.087 0.94,-0.132 0.89,-0.126 1.78,-0.245 2.67,-0.354 0.41,-0.05 0.83,-0.096 1.25,-0.143 0.8,-0.089 1.6,-0.172 2.4,-0.248 0.46,-0.042 0.91,-0.083 1.37,-0.121 0.79,-0.065 1.58,-0.122 2.37,-0.174 0.45,-0.03 0.91,-0.061 1.36,-0.086 0.84,-0.047 1.69,-0.081 2.54,-0.112 0.4,-0.014 0.79,-0.035 1.19,-0.045 1.24,-0.034 2.48,-0.055 3.73,-0.055 l 0,0 c 1.5,0 2.98,0.034 4.47,0.082 0.38,0.013 0.77,0.028 1.16,0.045 1.33,0.055 2.65,0.126 3.97,0.22 0.16,0.011 0.32,0.019 0.48,0.03 1.47,0.11 2.92,0.249 4.37,0.405 0.35,0.038 0.7,0.08 1.06,0.121 1.26,0.146 2.51,0.308 3.77,0.49 0.21,0.031 0.43,0.059 0.65,0.091 1.45,0.218 2.89,0.461 4.32,0.725 0.28,0.051 0.56,0.107 0.84,0.16 1.26,0.241 2.52,0.498 3.76,0.774 0.22,0.048 0.45,0.094 0.67,0.144 1.45,0.328 2.89,0.679 4.32,1.053 0.16,0.043 0.32,0.089 0.48,0.132 1.32,0.351 2.63,0.723 3.94,1.113 0.18,0.055 0.36,0.108 0.55,0.163 2.91,0.887 5.78,1.872 8.61,2.95 0.12,0.044 0.23,0.087 0.35,0.132 2.89,1.112 5.74,2.323 8.53,3.627 l 0.07,0.032 c 32.29,15.105 57.52,42.782 69.4,76.737 62.15,26.366 100.83,58.973 95.05,85.387 -5.54,25.338 -50.66,38.744 -113.88,38.024"
         style="fill:#253a4a;fill-opacity:1;fill-rule:nonzero;stroke:none"
         id="path32"
         inkscape:connector-curvature="0" /><path
         d="m 1214.98,498.223 c 0,-73.567 -59.64,-133.205 -133.21,-133.205 -73.56,0 -133.202,59.638 -133.202,133.205 0,73.567 59.642,133.204 133.202,133.204 73.57,0 133.21,-59.637 133.21,-133.204"
         style="fill:#f1dc65;fill-opacity:1;fill-rule:nonzero;stroke:none"
         id="path88"
         inkscape:connector-curvature="0" /><path
         d="m 950.596,521.269 c -1.307,-7.49 -2.028,-15.182 -2.028,-23.046 0,-6.052 0.442,-11.997 1.224,-17.835 80.948,-42.689 183.278,-41.976 264.058,0.783 0.72,5.588 1.13,11.27 1.13,17.052 0,28.36 -8.89,54.628 -24,76.23 -57.27,-39.217 -126.78,-60.61 -196.227,-59.411 -14.808,0.256 -30.13,1.749 -44.157,6.227"
         style="fill:#f3edab;fill-opacity:1;fill-rule:nonzero;stroke:none"
         id="path150"
         inkscape:connector-curvature="0" /><path
         d="m 1110.97,628.177 c -38.08,-33.612 -88.47,-53.339 -139.264,-54.932 -4.862,-7.12 -9.054,-14.732 -12.479,-22.752 39.845,-7.125 81.393,-9.363 118.573,5.775 27.6,11.235 51.45,34.792 61.51,62.12 -8.93,4.286 -18.43,7.573 -28.34,9.789"
         style="fill:#f3edab;fill-opacity:1;fill-rule:nonzero;stroke:none"
         id="path152"
         inkscape:connector-curvature="0" /><path
         d="m 1081.77,365.018 c 53.7,0 99.95,31.793 121.03,77.567 -1.68,-1.055 -3.32,-2.133 -4.91,-3.177 -58.92,-38.742 -135.38,-35.63 -205.196,-25.721 -5.249,0.745 -10.546,1.551 -15.821,2.495 24.387,-31.133 62.287,-51.164 104.897,-51.164"
         style="fill:#f3edab;fill-opacity:1;fill-rule:nonzero;stroke:none"
         id="path154"
         inkscape:connector-curvature="0" /><path
         d="m 1302.59,539.632 c -5.55,25.344 -50.68,38.75 -113.93,38.023 6.27,-8.425 11.56,-17.617 15.72,-27.409 45.63,2.412 76.23,-2.459 78.94,-14.833 4.76,-21.784 -78.64,-58.544 -186.29,-82.107 -107.645,-23.564 -198.777,-25.005 -203.545,-3.222 -2.483,11.343 18.973,26.746 55.273,42.231 -0.086,1.963 -0.19,3.923 -0.19,5.908 0,8.446 0.822,16.697 2.325,24.706 -51.231,-24.688 -81.87,-53.365 -76.683,-77.064 8.563,-39.121 111.401,-49.844 229.7,-23.951 118.29,25.893 207.24,78.598 198.68,117.718"
         style="fill:#efb23f;fill-opacity:1;fill-rule:nonzero;stroke:none"
         id="path156"
         inkscape:connector-curvature="0" /></g><g
       id="g4577"
       transform="translate(2279.7458,718.38983)"><path
         d="m 326.066,58.3371 c 0.421,0.0258 0.841,0.0508 1.261,0.0801 1.119,0.0789 2.235,0.1707 3.346,0.2769 0.215,0.02 0.431,0.036 0.646,0.0571 1.329,0.1328 2.65,0.2879 3.967,0.4597 0.322,0.0422 0.642,0.0911 0.964,0.1352 1.014,0.1398 2.024,0.2898 3.03,0.4519 0.383,0.0622 0.766,0.1262 1.148,0.1911 1.05,0.1781 2.095,0.3699 3.135,0.573 0.256,0.0508 0.514,0.0961 0.769,0.1481 1.317,0.2648 2.627,0.5488 3.929,0.8519 0.151,0.0359 0.3,0.075 0.451,0.1098 1.14,0.2711 2.275,0.557 3.404,0.8562 0.305,0.0809 0.61,0.1641 0.914,0.2469 1.054,0.2879 2.102,0.5879 3.144,0.9 0.228,0.0691 0.457,0.134 0.685,0.2039 2.58,0.7883 5.126,1.6531 7.637,2.591 0.18,0.068 0.358,0.1371 0.538,0.2051 1.114,0.4219 2.22,0.8582 3.319,1.3082 0.157,0.0637 0.314,0.1277 0.471,0.1918 2.543,1.0539 5.047,2.1832 7.508,3.3871 l 0.006,0.002 c 1.227,0.6007 2.442,1.2211 3.647,1.8578 l 0.176,0.0922 c 42.186,22.3539 70.93,66.7019 70.93,117.7709 0,1.254 -0.021,2.503 -0.055,3.748 -0.011,0.373 -0.029,0.742 -0.043,1.113 -0.032,0.887 -0.068,1.772 -0.117,2.654 -0.023,0.403 -0.051,0.804 -0.077,1.206 -0.056,0.87 -0.119,1.739 -0.192,2.605 -0.031,0.365 -0.063,0.729 -0.097,1.093 -0.088,0.954 -0.187,1.904 -0.296,2.851 -0.029,0.257 -0.057,0.515 -0.088,0.771 -7.923,66.002 -64.103,117.163 -132.24,117.163 -73.567,0 -133.204,-59.637 -133.204,-133.204 0,-58.192 37.318,-107.6588 89.324,-125.7979 0.234,-0.082 0.467,-0.1672 0.701,-0.2469 0.634,-0.2172 1.271,-0.425 1.909,-0.6332 0.333,-0.1078 0.665,-0.2179 0.999,-0.3238 0.607,-0.1922 1.218,-0.3781 1.829,-0.5621 0.369,-0.1109 0.737,-0.2211 1.107,-0.3289 0.597,-0.1742 1.195,-0.3442 1.795,-0.509 0.39,-0.1082 0.782,-0.2133 1.173,-0.318 0.591,-0.157 1.184,-0.3132 1.778,-0.4621 0.405,-0.1019 0.811,-0.1992 1.217,-0.2968 0.589,-0.1422 1.177,-0.2852 1.769,-0.4192 0.42,-0.0949 0.842,-0.184 1.263,-0.275 0.585,-0.1269 1.169,-0.257 1.757,-0.3762 0.456,-0.0918 0.916,-0.175 1.374,-0.2629 0.981,-0.1878 1.965,-0.3648 2.953,-0.532 0.551,-0.0918 1.101,-0.1879 1.654,-0.2738 0.488,-0.0762 0.98,-0.143 1.47,-0.2141 0.558,-0.0801 1.116,-0.1609 1.676,-0.234 0.484,-0.0628 0.97,-0.1211 1.456,-0.1793 0.575,-0.0687 1.151,-0.1359 1.729,-0.1976 0.474,-0.05 0.948,-0.0973 1.423,-0.143 0.6,-0.057 1.2,-0.1101 1.802,-0.1601 0.459,-0.0379 0.919,-0.0739 1.38,-0.1071 0.634,-0.0461 1.27,-0.0851 1.907,-0.1211 0.431,-0.025 0.861,-0.0519 1.293,-0.0718 0.714,-0.034 1.429,-0.059 2.146,-0.0821 0.359,-0.0109 0.717,-0.0269 1.076,-0.0359 1.079,-0.0262 2.16,-0.041 3.244,-0.041 1.356,0 2.705,0.0269 4.05,0.0668 0.407,0.0121 0.813,0.0301 1.219,0.0461 0.973,0.0383 1.943,0.0859 2.911,0.1441"
         style="fill:#253a4a;fill-opacity:1;fill-rule:nonzero;stroke:none"
         id="path24"
         inkscape:connector-curvature="0" /><path
         d="m 451.091,202.618 c 0,-73.567 -59.638,-133.2051 -133.205,-133.2051 -73.567,0 -133.204,59.6381 -133.204,133.2051 0,73.567 59.637,133.205 133.204,133.205 73.567,0 133.205,-59.638 133.205,-133.205"
         style="fill:#4897c9;fill-opacity:1;fill-rule:nonzero;stroke:none"
         id="path90"
         inkscape:connector-curvature="0" /><path
         d="m 371.989,106.631 c -3.42,-2.885 -6.929,-5.883 -11.193,-7.2369 -7.806,-2.48 -16.083,1.0339 -24.18,2.2609 -19.77,2.997 -38.767,-7.7698 -55.664,-18.4609 -2.969,-1.8781 -5.983,-3.7769 -9.039,-5.63 14.33,-5.2692 29.815,-8.1512 45.973,-8.1512 47.93,0 89.931,25.3273 113.395,63.3151 -1.571,0.205 -3.147,0.341 -4.721,0.33 -20.64,-0.147 -38.793,-13.12 -54.571,-26.427"
         style="fill:#3a6eb4;fill-opacity:1;fill-rule:nonzero;stroke:none"
         id="path158"
         inkscape:connector-curvature="0" /><path
         d="m 185.826,219.831 c 9.018,-3.335 17.366,-10.164 26.698,-8.399 13.39,2.534 18.657,20.987 31.855,24.379 7.146,1.836 14.48,-1.332 21.568,-3.382 30.436,-8.799 65.959,5.224 82.177,32.442 3.236,5.429 5.971,11.526 11.189,15.092 12.917,8.826 30.476,-3.187 45.864,-0.371 6.132,1.122 10.918,4.39 14.508,8.898 -13.833,16.382 -31.543,29.369 -51.721,37.563 -1.542,-1.425 -3.219,-2.673 -5.113,-3.633 -6.708,-3.396 -14.645,-2.644 -22.146,-3.166 -17.931,-1.247 -35.132,-10.67 -45.835,-25.109 -7.618,-10.278 -13.879,-24.171 -26.527,-26.093 -6.845,-1.04 -13.556,1.969 -20.138,4.118 -13.565,4.428 -28.263,5.308 -42.269,2.592 -10.481,-16.232 -17.521,-34.878 -20.11,-54.931"
         style="fill:#3a6eb4;fill-opacity:1;fill-rule:nonzero;stroke:none"
         id="path160"
         inkscape:connector-curvature="0" /><path
         d="m 437.128,261.984 c -3.772,-6.503 -9.823,-11.509 -15.716,-16.284 -20.681,-16.759 -41.362,-33.518 -62.042,-50.278 -8.544,-6.922 -17.409,-14.016 -27.995,-16.991 -25.264,-7.099 -53.346,10.907 -77.773,1.319 -9.677,-3.799 -17.234,-11.451 -25.775,-17.376 -9.565,-6.636 -20.941,-11.103 -32.46,-12.086 4.917,-11.496 11.407,-22.155 19.196,-31.718 0.187,0.088 0.373,0.184 0.561,0.27 10.438,4.805 21.909,8.179 33.332,6.945 19.878,-2.149 40.124,-17.727 57.869,-8.514 8.501,4.414 13.56,13.57 21.588,18.795 18.741,12.199 45.544,-0.941 65.408,9.33 18.472,9.551 22.817,34.822 39.18,47.656 5.423,4.255 11.967,6.98 18.588,9.507 l 0.002,0.059 c 0,21.338 -5.045,41.487 -13.963,59.366"
         style="fill:#3a6eb4;fill-opacity:1;fill-rule:nonzero;stroke:none"
         id="path162"
         inkscape:connector-curvature="0" /></g><g
       id="g4589"
       transform="translate(124.57627,851.27119)"><path
         d="m 2535.1598,-352.37541 c -73.56,0 -133.202,-59.637 -133.202,-133.204 0,-73.567 59.642,-133.2049 133.202,-133.2049 73.57,0 133.21,59.6379 133.21,133.2049 0,73.567 -59.64,133.204 -133.21,133.204"
         style="fill:#253a4a;fill-opacity:1;fill-rule:nonzero;stroke:none"
         id="path28"
         inkscape:connector-curvature="0" /><path
         d="m 2668.3698,-474.24641 c 0,-73.567 -59.64,-133.2051 -133.21,-133.2051 -73.56,0 -133.202,59.6381 -133.202,133.2051 0,73.567 59.642,133.205 133.202,133.205 73.57,0 133.21,-59.638 133.21,-133.205"
         style="fill:#e2eff5;fill-opacity:1;fill-rule:nonzero;stroke:none"
         id="path94"
         inkscape:connector-curvature="0" /><path
         d="m 2513.2698,-446.87541 c 0,-21.163 -17.16,-38.319 -38.32,-38.319 -21.17,0 -38.322,17.156 -38.322,38.319 0,21.163 17.152,38.319 38.322,38.319 21.16,0 38.32,-17.156 38.32,-38.319"
         style="fill:#c6d7dc;fill-opacity:1;fill-rule:nonzero;stroke:none"
         id="path170"
         inkscape:connector-curvature="0" /><path
         d="m 2553.4098,-388.48441 c 0,-10.078 -8.17,-18.247 -18.25,-18.247 -10.07,0 -18.24,8.169 -18.24,18.247 0,10.078 8.17,18.247 18.24,18.247 10.08,0 18.25,-8.169 18.25,-18.247"
         style="fill:#c6d7dc;fill-opacity:1;fill-rule:nonzero;stroke:none"
         id="path172"
         inkscape:connector-curvature="0" /><path
         d="m 2622.7498,-470.59741 c 0,-22.17 -17.97,-40.143 -40.14,-40.143 -22.18,0 -40.15,17.973 -40.15,40.143 0,22.171 17.97,40.144 40.15,40.144 22.17,0 40.14,-17.973 40.14,-40.144"
         style="fill:#c6d7dc;fill-opacity:1;fill-rule:nonzero;stroke:none"
         id="path174"
         inkscape:connector-curvature="0" /><path
         d="m 2551.5898,-549.06041 c 0,-16.124 -13.08,-29.195 -29.2,-29.195 -16.12,0 -29.2,13.071 -29.2,29.195 0,16.125 13.08,29.196 29.2,29.196 16.12,0 29.2,-13.071 29.2,-29.196"
         style="fill:#c6d7dc;fill-opacity:1;fill-rule:nonzero;stroke:none"
         id="path176"
         inkscape:connector-curvature="0" /><path
         d="m 2599.0298,-541.76141 c 0,-7.054 -5.72,-12.773 -12.77,-12.773 -7.06,0 -12.78,5.719 -12.78,12.773 0,7.055 5.72,12.773 12.78,12.773 7.05,0 12.77,-5.718 12.77,-12.773"
         style="fill:#c6d7dc;fill-opacity:1;fill-rule:nonzero;stroke:none"
         id="path178"
         inkscape:connector-curvature="0" /><path
         d="m 2482.2498,-518.03941 c 0,-8.062 -6.54,-14.598 -14.6,-14.598 -8.06,0 -14.599,6.536 -14.599,14.598 0,8.062 6.539,14.597 14.599,14.597 8.06,0 14.6,-6.535 14.6,-14.597"
         style="fill:#c6d7dc;fill-opacity:1;fill-rule:nonzero;stroke:none"
         id="path180"
         inkscape:connector-curvature="0" /><path
         d="m 2604.4998,-395.78341 c 0,-8.062 -6.53,-14.598 -14.6,-14.598 -8.06,0 -14.59,6.536 -14.59,14.598 0,8.062 6.53,14.598 14.59,14.598 8.07,0 14.6,-6.536 14.6,-14.598"
         style="fill:#c6d7dc;fill-opacity:1;fill-rule:nonzero;stroke:none"
         id="path182"
         inkscape:connector-curvature="0" /></g><path
       inkscape:connector-curvature="0"
       id="path230"
       style="fill:#ffffff;fill-opacity:1;fill-rule:nonzero;stroke:none"
       d="m 2192.0358,-652.37531 c 1.01,0.3179 1.312,1.1519 1.312,2.1039 0,0.898 -0.29,2.239 -1.332,2.239 -1.876,0 -2.702,-3.0289 -3.001,-5.3 l 3.021,0.9571 z m 8.002,3.1172 c 0,-3.2442 -1.81,-5.3883 -6.321,-6.3172 l -4.733,-0.977 c 0.364,-2.0402 1.645,-3.0371 3.774,-3.0371 2.607,0 4.352,1.968 4.352,1.968 0,0 1.33,-0.7418 1.33,-2.2649 0,-2.7019 -4.144,-5.6332 -8.964,-5.6332 -4.89,0 -8.081,3.0903 -8.081,8.3082 0,6.0282 4.271,14.2059 11.872,14.2059 4.163,0 6.771,-2.466 6.771,-6.2527" /><path
       inkscape:connector-curvature="0"
       id="path232"
       style="fill:#ffffff;fill-opacity:1;fill-rule:nonzero;stroke:none"
       d="m 2212.7808,-643.00541 c 3.835,0 6.717,-2.0328 6.717,-4.6719 0,-3.3 -3.995,-4.5058 -3.995,-4.5058 0,0 -1.172,3.6039 -3.858,3.6039 -1.82,0 -2.868,-1.8411 -2.868,-5.7672 0,-3.616 0.952,-5.243 3.291,-5.243 2.401,0 3.878,1.6352 3.878,1.6352 0,0 1.332,-0.7411 1.332,-2.2223 0,-2.5859 -3.98,-5.343 -8.614,-5.343 -4.934,0 -7.974,3.0903 -7.974,8.2274 0,6.109 4.367,14.2867 12.094,14.2867 l 0,0" /><path
       inkscape:connector-curvature="0"
       id="path234"
       style="fill:#ffffff;fill-opacity:1;fill-rule:nonzero;stroke:none"
       d="m 2231.2078,-638.19251 c 0.924,0 1.539,-0.7047 1.539,-0.7047 l -0.722,-4.543 4.812,0 -1.085,-3.4633 c -0.352,-1.1148 -0.906,-1.7308 -2.034,-1.7308 l -2.514,0 -1.402,-8.8512 c -0.228,-1.4309 0.084,-2.093 1.058,-2.1039 0.885,-0.006 1.758,0.5402 1.758,0.5402 0,0 1.343,-0.748 1.343,-2.1523 0,-2.1668 -3.09,-4.318 -7.001,-4.318 -4.148,0 -5.821,2.5383 -5.118,6.9793 l 1.566,9.9059 -2.61,0 1.136,3.6129 c 0.292,0.9269 1.057,1.5812 1.993,1.5812 l 1.269,0 1.521,4.1821 c 1.883,0.4617 3.637,1.0656 4.491,1.0656" /><path
       inkscape:connector-curvature="0"
       id="path236"
       style="fill:#ffffff;fill-opacity:1;fill-rule:nonzero;stroke:none"
       d="m 2246.5718,-652.37531 c 1.009,0.3179 1.312,1.1519 1.312,2.1039 0,0.898 -0.292,2.239 -1.332,2.239 -1.876,0 -2.705,-3.0289 -3.002,-5.3 l 3.022,0.9571 z m 8,3.1172 c 0,-3.2442 -1.809,-5.3883 -6.32,-6.3172 l -4.734,-0.977 c 0.366,-2.0402 1.647,-3.0371 3.773,-3.0371 2.607,0 4.353,1.968 4.353,1.968 0,0 1.332,-0.7418 1.332,-2.2649 0,-2.7019 -4.144,-5.6332 -8.964,-5.6332 -4.892,0 -8.081,3.0903 -8.081,8.3082 0,6.0282 4.269,14.2059 11.872,14.2059 4.162,0 6.771,-2.466 6.771,-6.2527 l 0,0" /><path
       inkscape:connector-curvature="0"
       id="path238"
       style="fill:#ffffff;fill-opacity:1;fill-rule:nonzero;stroke:none"
       d="m 2265.8788,-652.37531 c 1.009,0.3179 1.312,1.1519 1.312,2.1039 0,0.898 -0.294,2.239 -1.332,2.239 -1.876,0 -2.705,-3.0289 -3.003,-5.3 l 3.023,0.9571 z m 7.999,3.1172 c 0,-3.2442 -1.809,-5.3883 -6.319,-6.3172 l -4.734,-0.977 c 0.364,-2.0402 1.646,-3.0371 3.773,-3.0371 2.61,0 4.352,1.968 4.352,1.968 0,0 1.333,-0.7418 1.333,-2.2649 0,-2.7019 -4.144,-5.6332 -8.964,-5.6332 -4.892,0 -8.083,3.0903 -8.083,8.3082 0,6.0282 4.273,14.2059 11.872,14.2059 4.164,0 6.773,-2.466 6.773,-6.2527 l 0,0" /><g
       id="g4680"
       transform="translate(1013.2203,1108.7288)"><path
         d="m 2255.0396,-233.75163 c -0.052,1.32 -0.121,2.636 -0.21,3.946 l -0.017,0.258 c -4.869,69.135 -62.49,123.711 -132.864,123.711 -70.474,0 -128.156,-54.731 -132.883,-124.006 -0.02,-0.296 -0.038,-0.594 -0.056,-0.891 -0.065,-1.058 -0.118,-2.118 -0.158,-3.182 -0.013,-0.356 -0.03,-0.711 -0.04,-1.068 -0.041,-1.348 -0.067,-2.7 -0.067,-4.058 0,-1.655 0.04,-3.3 0.1,-4.94 0.01,-0.258 0.018,-0.517 0.03,-0.775 1.915,-45.353 26.504,-84.834 62.727,-107.408 l 0.054,-0.034 c 3.534,-2.2 7.179,-4.239 10.925,-6.107 0.125,-0.063 0.251,-0.125 0.377,-0.188 1.211,-0.599 2.431,-1.184 3.662,-1.747 l 0,-8e-4 c 1.294,-0.591 2.598,-1.163 3.913,-1.714 l 0.034,-0.014 c 1.204,-0.504 2.419,-0.987 3.641,-1.456 0.227,-0.087 0.454,-0.173 0.682,-0.259 1.109,-0.419 2.224,-0.825 3.347,-1.215 0.159,-0.055 0.316,-0.112 0.475,-0.167 1.3,-0.446 2.608,-0.874 3.926,-1.281 l 0.226,-0.067 c 1.183,-0.362 2.373,-0.706 3.57,-1.036 0.311,-0.086 0.623,-0.169 0.935,-0.253 1.04,-0.279 2.085,-0.545 3.135,-0.799 0.275,-0.067 0.547,-0.136 0.822,-0.201 1.312,-0.309 2.63,-0.601 3.957,-0.871 0.112,-0.023 0.225,-0.042 0.338,-0.064 1.185,-0.238 2.377,-0.458 3.574,-0.664 0.374,-0.064 0.749,-0.125 1.124,-0.186 0.999,-0.163 2.003,-0.315 3.009,-0.456 0.357,-0.049 0.712,-0.102 1.07,-0.149 1.331,-0.175 2.667,-0.336 4.01,-0.472 0.097,-0.01 0.196,-0.016 0.293,-0.026 1.238,-0.122 2.481,-0.224 3.729,-0.312 0.408,-0.029 0.817,-0.053 1.227,-0.078 0.99,-0.061 1.984,-0.11 2.981,-0.15 0.405,-0.016 0.809,-0.033 1.215,-0.046 1.36,-0.041 2.724,-0.068 4.094,-0.068 1.107,0 2.211,0.015 3.312,0.042 0.379,0.009 0.755,0.027 1.134,0.04 0.718,0.023 1.436,0.046 2.152,0.081 0.462,0.023 0.921,0.054 1.382,0.081 0.626,0.038 1.252,0.074 1.876,0.119 0.504,0.037 1.006,0.082 1.509,0.124 0.573,0.049 1.147,0.097 1.718,0.153 0.536,0.052 1.069,0.111 1.603,0.169 0.529,0.059 1.059,0.117 1.587,0.182 0.565,0.069 1.128,0.143 1.691,0.219 0.487,0.065 0.973,0.133 1.459,0.204 0.595,0.087 1.189,0.178 1.782,0.273 0.44,0.07 0.88,0.144 1.319,0.218 0.63,0.108 1.26,0.218 1.887,0.335 0.384,0.071 0.767,0.145 1.149,0.22 0.678,0.131 1.354,0.266 2.027,0.407 0.305,0.065 0.609,0.133 0.913,0.199 0.747,0.163 1.492,0.328 2.233,0.503 0.18,0.043 0.359,0.089 0.538,0.132 55.46,13.344 97.403,61.379 101.584,119.869 l 0.01,0.131 c 0.096,1.372 0.169,2.75 0.224,4.133 0.013,0.331 0.027,0.663 0.038,0.995 0.047,1.454 0.079,2.911 0.079,4.375 0,1.443 -0.031,2.878 -0.077,4.309 -0.01,0.327 -0.024,0.654 -0.037,0.981"
         style="fill:#253a4a;fill-opacity:1;fill-rule:nonzero;stroke:none"
         id="path30"
         inkscape:connector-curvature="0" /><path
         d="m 2255.1536,-227.70763 c 0,-73.567 -59.638,-133.205 -133.205,-133.205 -73.567,0 -133.204,59.638 -133.204,133.205 0,73.567 59.637,133.204003 133.204,133.204003 73.567,0 133.205,-59.637003 133.205,-133.204003"
         style="fill:#c8c4bc;fill-opacity:1;fill-rule:nonzero;stroke:none"
         id="path86"
         inkscape:connector-curvature="0" /><path
         d="m 2007.5856,-296.01063 c 23.266,-38.869 65.768,-64.902 114.363,-64.902 33.998,0 65.004,12.756 88.541,33.718 -66.526,-15.492 -139.805,0.25 -202.904,31.184"
         style="fill:#b2a99d;fill-opacity:1;fill-rule:nonzero;stroke:none"
         id="path144"
         inkscape:connector-curvature="0" /><path
         d="m 2019.1236,-151.78163 c 6.23,-4.773 12.66,-9.649 20.215,-11.773 8.133,-2.287 16.77,-1.168 25.218,-1.133 15.363,0.066 30.486,-3.505 45.764,-5.108 32.76,-3.44 66.442,2.376 96.15,16.605 6.238,2.987 12.409,6.483 17.565,11.021 -11.96,14.26 -26.844,25.978 -43.741,34.225 -15.679,-5.33 -32.426,-8.595 -48.661,-11.089 -19.1,-2.934 -38.646,-5.266 -57.668,-1.86 -7.352,1.316 -14.647,3.621 -21.403,6.904 -14.689,-8.982 -27.496,-20.73 -37.71,-34.518 1.424,-1.092 2.848,-2.183 4.271,-3.274"
         style="fill:#b2a99d;fill-opacity:1;fill-rule:nonzero;stroke:none"
         id="path146"
         inkscape:connector-curvature="0" /><path
         d="m 2250.0406,-191.18263 c -18.583,-12.734 -39.463,-22.12 -61.392,-27.291 -62.882,-14.828 -128.231,4.345 -189.979,23.352 -1.809,0.557 -3.628,1.131 -5.442,1.722 -2.911,-10.949 -4.483,-22.443 -4.483,-34.308 0,-7.206 0.59,-14.27 1.691,-21.165 21.577,-15.149 49.313,-22.538 75.834,-27.11 61.025,-10.516 126.524,-10.728 183.579,11.073 3.43,11.812 5.305,24.284 5.305,37.202 0,12.671 -1.808,24.914 -5.113,36.525"
         style="fill:#b2a99d;fill-opacity:1;fill-rule:nonzero;stroke:none"
         id="path148"
         inkscape:connector-curvature="0" /></g></g></svg>