<?xml version="1.0" encoding="UTF-8" standalone="no"?>
<!-- Created with Inkscape (http://www.inkscape.org/) -->

<svg
   xmlns:dc="http://purl.org/dc/elements/1.1/"
   xmlns:cc="http://creativecommons.org/ns#"
   xmlns:rdf="http://www.w3.org/1999/02/22-rdf-syntax-ns#"
   xmlns:svg="http://www.w3.org/2000/svg"
   xmlns="http://www.w3.org/2000/svg"
   xmlns:sodipodi="http://sodipodi.sourceforge.net/DTD/sodipodi-0.dtd"
   xmlns:inkscape="http://www.inkscape.org/namespaces/inkscape"
   id="svg2"
   version="1.1"
   inkscape:version="0.91 r"
   xml:space="preserve"
   width="333.01126"
   height="347.17749"
   viewBox="0 0 333.01126 347.1775"
   sodipodi:docname="planet5.svg"><metadata
     id="metadata8"><rdf:RDF><cc:Work
         rdf:about=""><dc:format>image/svg+xml</dc:format><dc:type
           rdf:resource="http://purl.org/dc/dcmitype/StillImage" /><dc:title /></cc:Work></rdf:RDF></metadata><defs
     id="defs6" /><sodipodi:namedview
     pagecolor="#ffffff"
     bordercolor="#666666"
     borderopacity="1"
     objecttolerance="10"
     gridtolerance="10"
     guidetolerance="10"
     inkscape:pageopacity="0"
     inkscape:pageshadow="2"
     inkscape:window-width="1920"
     inkscape:window-height="1028"
     id="namedview4"
     showgrid="false"
     fit-margin-top="0"
     fit-margin-left="0"
     fit-margin-right="0"
     fit-margin-bottom="0"
     inkscape:zoom="0.19265306"
     inkscape:cx="-2282.4506"
     inkscape:cy="16.313533"
     inkscape:window-x="0"
     inkscape:window-y="25"
     inkscape:window-maximized="1"
     inkscape:current-layer="g10" /><g
     id="g10"
     inkscape:groupmode="layer"
     inkscape:label="ink_ext_XXXXXX"
     transform="matrix(1.25,0,0,-1.25,-3744.9415,732.18629)"><g
       id="g4548"
       transform="translate(2811.2712,-45.677966)"><g
         id="g4527"><path
           inkscape:connector-curvature="0"
           id="path22"
           style="fill:#253a4a;fill-opacity:1;fill-rule:nonzero;stroke:none"
           d="m 317.886,353.685 c 73.567,0 133.205,59.638 133.205,133.204 0,73.567 -59.638,133.205 -133.205,133.205 -73.567,0 -133.204,-59.638 -133.204,-133.205 0,-73.566 59.637,-133.204 133.204,-133.204" /><path
           inkscape:connector-curvature="0"
           id="path84"
           style="fill:#e94c36;fill-opacity:1;fill-rule:nonzero;stroke:none"
           d="m 451.091,498.223 c 0,-73.567 -59.638,-133.205 -133.205,-133.205 -73.567,0 -133.204,59.638 -133.204,133.205 0,73.567 59.637,133.204 133.204,133.204 73.567,0 133.205,-59.637 133.205,-133.204" /><path
           inkscape:connector-curvature="0"
           id="path122"
           style="fill:#ca3f32;fill-opacity:1;fill-rule:nonzero;stroke:none"
           d="m 282.546,551.14 c 0,-8.063 -6.536,-14.598 -14.598,-14.598 -8.062,0 -14.598,6.535 -14.598,14.598 0,8.062 6.536,14.597 14.598,14.597 8.062,0 14.598,-6.535 14.598,-14.597" /><path
           inkscape:connector-curvature="0"
           id="path124"
           style="fill:#ca3f32;fill-opacity:1;fill-rule:nonzero;stroke:none"
           d="m 375.606,574.861 c 0,-21.163 -17.156,-38.319 -38.319,-38.319 -21.163,0 -38.319,17.156 -38.319,38.319 0,21.163 17.156,38.319 38.319,38.319 21.163,0 38.319,-17.156 38.319,-38.319" /><path
           inkscape:connector-curvature="0"
           id="path126"
           style="fill:#ca3f32;fill-opacity:1;fill-rule:nonzero;stroke:none"
           d="m 284.37,474.501 c 0,-22.17 -17.973,-40.144 -40.144,-40.144 -22.17,0 -40.143,17.974 -40.143,40.144 0,22.171 17.973,40.144 40.143,40.144 22.171,0 40.144,-17.973 40.144,-40.144" /><path
           inkscape:connector-curvature="0"
           id="path128"
           style="fill:#ca3f32;fill-opacity:1;fill-rule:nonzero;stroke:none"
           d="m 339.112,490.924 c 0,-13.101 -10.621,-23.722 -23.722,-23.722 -13.1,0 -23.721,10.621 -23.721,23.722 0,13.101 10.621,23.721 23.721,23.721 13.101,0 23.722,-10.62 23.722,-23.721" /><path
           inkscape:connector-curvature="0"
           id="path130"
           style="fill:#ca3f32;fill-opacity:1;fill-rule:nonzero;stroke:none"
           d="m 348.235,417.935 c 0,-17.132 -13.888,-31.02 -31.02,-31.02 -17.132,0 -31.02,13.888 -31.02,31.02 0,17.132 13.888,31.02 31.02,31.02 17.132,0 31.02,-13.888 31.02,-31.02" /><path
           inkscape:connector-curvature="0"
           id="path132"
           style="fill:#ca3f32;fill-opacity:1;fill-rule:nonzero;stroke:none"
           d="m 421.224,479.976 c 0,-19.148 -15.522,-34.67 -34.669,-34.67 -19.148,0 -34.67,15.522 -34.67,34.67 0,19.147 15.522,34.669 34.67,34.669 19.147,0 34.669,-15.522 34.669,-34.669" /><path
           inkscape:connector-curvature="0"
           id="path134"
           style="fill:#ca3f32;fill-opacity:1;fill-rule:nonzero;stroke:none"
           d="m 412.101,545.666 c 0,-7.055 -5.719,-12.774 -12.773,-12.774 -7.055,0 -12.773,5.719 -12.773,12.774 0,7.054 5.718,12.772 12.773,12.772 7.054,0 12.773,-5.718 12.773,-12.772" /><path
           inkscape:connector-curvature="0"
           id="path136"
           style="fill:#ca3f32;fill-opacity:1;fill-rule:nonzero;stroke:none"
           d="m 293.494,600.407 c 0,-7.054 -5.719,-12.773 -12.773,-12.773 -7.055,0 -12.773,5.719 -12.773,12.773 0,7.054 5.718,12.773 12.773,12.773 7.054,0 12.773,-5.719 12.773,-12.773" /><path
           inkscape:connector-curvature="0"
           id="path138"
           style="fill:#ca3f32;fill-opacity:1;fill-rule:nonzero;stroke:none"
           d="m 270.402,538.366 c 0,-8.062 -6.536,-14.597 -14.598,-14.597 -8.062,0 -14.598,6.535 -14.598,14.597 0,8.063 6.536,14.598 14.598,14.598 8.062,0 14.598,-6.535 14.598,-14.598" /><path
           inkscape:connector-curvature="0"
           id="path140"
           style="fill:#ca3f32;fill-opacity:1;fill-rule:nonzero;stroke:none"
           d="m 388.379,416.11 c 0,-6.046 -4.901,-10.948 -10.948,-10.948 -6.047,0 -10.948,4.902 -10.948,10.948 0,6.047 4.901,10.949 10.948,10.949 6.047,0 10.948,-4.902 10.948,-10.949" /><path
           inkscape:connector-curvature="0"
           id="path142"
           style="fill:#ca3f32;fill-opacity:1;fill-rule:nonzero;stroke:none"
           d="m 269.772,412.461 c 0,-5.039 -4.084,-9.124 -9.123,-9.124 -5.039,0 -9.124,4.085 -9.124,9.124 0,5.039 4.085,9.123 9.124,9.123 5.039,0 9.123,-4.084 9.123,-9.123" /></g></g><path
       inkscape:connector-curvature="0"
       id="path230"
       style="fill:#ffffff;fill-opacity:1;fill-rule:nonzero;stroke:none"
       d="m 2192.0358,-652.37531 c 1.01,0.3179 1.312,1.1519 1.312,2.1039 0,0.898 -0.29,2.239 -1.332,2.239 -1.876,0 -2.702,-3.0289 -3.001,-5.3 l 3.021,0.9571 z m 8.002,3.1172 c 0,-3.2442 -1.81,-5.3883 -6.321,-6.3172 l -4.733,-0.977 c 0.364,-2.0402 1.645,-3.0371 3.774,-3.0371 2.607,0 4.352,1.968 4.352,1.968 0,0 1.33,-0.7418 1.33,-2.2649 0,-2.7019 -4.144,-5.6332 -8.964,-5.6332 -4.89,0 -8.081,3.0903 -8.081,8.3082 0,6.0282 4.271,14.2059 11.872,14.2059 4.163,0 6.771,-2.466 6.771,-6.2527" /><path
       inkscape:connector-curvature="0"
       id="path232"
       style="fill:#ffffff;fill-opacity:1;fill-rule:nonzero;stroke:none"
       d="m 2212.7808,-643.00541 c 3.835,0 6.717,-2.0328 6.717,-4.6719 0,-3.3 -3.995,-4.5058 -3.995,-4.5058 0,0 -1.172,3.6039 -3.858,3.6039 -1.82,0 -2.868,-1.8411 -2.868,-5.7672 0,-3.616 0.952,-5.243 3.291,-5.243 2.401,0 3.878,1.6352 3.878,1.6352 0,0 1.332,-0.7411 1.332,-2.2223 0,-2.5859 -3.98,-5.343 -8.614,-5.343 -4.934,0 -7.974,3.0903 -7.974,8.2274 0,6.109 4.367,14.2867 12.094,14.2867 l 0,0" /><path
       inkscape:connector-curvature="0"
       id="path234"
       style="fill:#ffffff;fill-opacity:1;fill-rule:nonzero;stroke:none"
       d="m 2231.2078,-638.19251 c 0.924,0 1.539,-0.7047 1.539,-0.7047 l -0.722,-4.543 4.812,0 -1.085,-3.4633 c -0.352,-1.1148 -0.906,-1.7308 -2.034,-1.7308 l -2.514,0 -1.402,-8.8512 c -0.228,-1.4309 0.084,-2.093 1.058,-2.1039 0.885,-0.006 1.758,0.5402 1.758,0.5402 0,0 1.343,-0.748 1.343,-2.1523 0,-2.1668 -3.09,-4.318 -7.001,-4.318 -4.148,0 -5.821,2.5383 -5.118,6.9793 l 1.566,9.9059 -2.61,0 1.136,3.6129 c 0.292,0.9269 1.057,1.5812 1.993,1.5812 l 1.269,0 1.521,4.1821 c 1.883,0.4617 3.637,1.0656 4.491,1.0656" /><path
       inkscape:connector-curvature="0"
       id="path236"
       style="fill:#ffffff;fill-opacity:1;fill-rule:nonzero;stroke:none"
       d="m 2246.5718,-652.37531 c 1.009,0.3179 1.312,1.1519 1.312,2.1039 0,0.898 -0.292,2.239 -1.332,2.239 -1.876,0 -2.705,-3.0289 -3.002,-5.3 l 3.022,0.9571 z m 8,3.1172 c 0,-3.2442 -1.809,-5.3883 -6.32,-6.3172 l -4.734,-0.977 c 0.366,-2.0402 1.647,-3.0371 3.773,-3.0371 2.607,0 4.353,1.968 4.353,1.968 0,0 1.332,-0.7418 1.332,-2.2649 0,-2.7019 -4.144,-5.6332 -8.964,-5.6332 -4.892,0 -8.081,3.0903 -8.081,8.3082 0,6.0282 4.269,14.2059 11.872,14.2059 4.162,0 6.771,-2.466 6.771,-6.2527 l 0,0" /><path
       inkscape:connector-curvature="0"
       id="path238"
       style="fill:#ffffff;fill-opacity:1;fill-rule:nonzero;stroke:none"
       d="m 2265.8788,-652.37531 c 1.009,0.3179 1.312,1.1519 1.312,2.1039 0,0.898 -0.294,2.239 -1.332,2.239 -1.876,0 -2.705,-3.0289 -3.003,-5.3 l 3.023,0.9571 z m 7.999,3.1172 c 0,-3.2442 -1.809,-5.3883 -6.319,-6.3172 l -4.734,-0.977 c 0.364,-2.0402 1.646,-3.0371 3.773,-3.0371 2.61,0 4.352,1.968 4.352,1.968 0,0 1.333,-0.7418 1.333,-2.2649 0,-2.7019 -4.144,-5.6332 -8.964,-5.6332 -4.892,0 -8.083,3.0903 -8.083,8.3082 0,6.0282 4.273,14.2059 11.872,14.2059 4.164,0 6.773,-2.466 6.773,-6.2527 l 0,0" /></g></svg>