<?xml version="1.0" encoding="UTF-8" standalone="no"?>
<!-- Created with Inkscape (http://www.inkscape.org/) -->

<svg
   xmlns:dc="http://purl.org/dc/elements/1.1/"
   xmlns:cc="http://creativecommons.org/ns#"
   xmlns:rdf="http://www.w3.org/1999/02/22-rdf-syntax-ns#"
   xmlns:svg="http://www.w3.org/2000/svg"
   xmlns="http://www.w3.org/2000/svg"
   xmlns:sodipodi="http://sodipodi.sourceforge.net/DTD/sodipodi-0.dtd"
   xmlns:inkscape="http://www.inkscape.org/namespaces/inkscape"
   id="svg2"
   version="1.1"
   inkscape:version="0.91 r"
   xml:space="preserve"
   width="333.01126"
   height="347.17862"
   viewBox="0 0 333.01126 347.17863"
   sodipodi:docname="planet2.svg"><metadata
     id="metadata8"><rdf:RDF><cc:Work
         rdf:about=""><dc:format>image/svg+xml</dc:format><dc:type
           rdf:resource="http://purl.org/dc/dcmitype/StillImage" /><dc:title></dc:title></cc:Work></rdf:RDF></metadata><defs
     id="defs6" /><sodipodi:namedview
     pagecolor="#ffffff"
     bordercolor="#666666"
     borderopacity="1"
     objecttolerance="10"
     gridtolerance="10"
     guidetolerance="10"
     inkscape:pageopacity="0"
     inkscape:pageshadow="2"
     inkscape:window-width="1920"
     inkscape:window-height="1028"
     id="namedview4"
     showgrid="false"
     fit-margin-top="0"
     fit-margin-left="0"
     fit-margin-right="0"
     fit-margin-bottom="0"
     inkscape:zoom="0.19265306"
     inkscape:cx="-1618.044"
     inkscape:cy="-569.26506"
     inkscape:window-x="0"
     inkscape:window-y="25"
     inkscape:window-maximized="1"
     inkscape:current-layer="g10" /><g
     id="g10"
     inkscape:groupmode="layer"
     inkscape:label="ink_ext_XXXXXX"
     transform="matrix(1.25,0,0,-1.25,-3080.5348,1317.766)"><g
       id="g4577"
       transform="translate(2279.7458,718.38983)"><path
         d="m 326.066,58.3371 c 0.421,0.0258 0.841,0.0508 1.261,0.0801 1.119,0.0789 2.235,0.1707 3.346,0.2769 0.215,0.02 0.431,0.036 0.646,0.0571 1.329,0.1328 2.65,0.2879 3.967,0.4597 0.322,0.0422 0.642,0.0911 0.964,0.1352 1.014,0.1398 2.024,0.2898 3.03,0.4519 0.383,0.0622 0.766,0.1262 1.148,0.1911 1.05,0.1781 2.095,0.3699 3.135,0.573 0.256,0.0508 0.514,0.0961 0.769,0.1481 1.317,0.2648 2.627,0.5488 3.929,0.8519 0.151,0.0359 0.3,0.075 0.451,0.1098 1.14,0.2711 2.275,0.557 3.404,0.8562 0.305,0.0809 0.61,0.1641 0.914,0.2469 1.054,0.2879 2.102,0.5879 3.144,0.9 0.228,0.0691 0.457,0.134 0.685,0.2039 2.58,0.7883 5.126,1.6531 7.637,2.591 0.18,0.068 0.358,0.1371 0.538,0.2051 1.114,0.4219 2.22,0.8582 3.319,1.3082 0.157,0.0637 0.314,0.1277 0.471,0.1918 2.543,1.0539 5.047,2.1832 7.508,3.3871 l 0.006,0.002 c 1.227,0.6007 2.442,1.2211 3.647,1.8578 l 0.176,0.0922 c 42.186,22.3539 70.93,66.7019 70.93,117.7709 0,1.254 -0.021,2.503 -0.055,3.748 -0.011,0.373 -0.029,0.742 -0.043,1.113 -0.032,0.887 -0.068,1.772 -0.117,2.654 -0.023,0.403 -0.051,0.804 -0.077,1.206 -0.056,0.87 -0.119,1.739 -0.192,2.605 -0.031,0.365 -0.063,0.729 -0.097,1.093 -0.088,0.954 -0.187,1.904 -0.296,2.851 -0.029,0.257 -0.057,0.515 -0.088,0.771 -7.923,66.002 -64.103,117.163 -132.24,117.163 -73.567,0 -133.204,-59.637 -133.204,-133.204 0,-58.192 37.318,-107.6588 89.324,-125.7979 0.234,-0.082 0.467,-0.1672 0.701,-0.2469 0.634,-0.2172 1.271,-0.425 1.909,-0.6332 0.333,-0.1078 0.665,-0.2179 0.999,-0.3238 0.607,-0.1922 1.218,-0.3781 1.829,-0.5621 0.369,-0.1109 0.737,-0.2211 1.107,-0.3289 0.597,-0.1742 1.195,-0.3442 1.795,-0.509 0.39,-0.1082 0.782,-0.2133 1.173,-0.318 0.591,-0.157 1.184,-0.3132 1.778,-0.4621 0.405,-0.1019 0.811,-0.1992 1.217,-0.2968 0.589,-0.1422 1.177,-0.2852 1.769,-0.4192 0.42,-0.0949 0.842,-0.184 1.263,-0.275 0.585,-0.1269 1.169,-0.257 1.757,-0.3762 0.456,-0.0918 0.916,-0.175 1.374,-0.2629 0.981,-0.1878 1.965,-0.3648 2.953,-0.532 0.551,-0.0918 1.101,-0.1879 1.654,-0.2738 0.488,-0.0762 0.98,-0.143 1.47,-0.2141 0.558,-0.0801 1.116,-0.1609 1.676,-0.234 0.484,-0.0628 0.97,-0.1211 1.456,-0.1793 0.575,-0.0687 1.151,-0.1359 1.729,-0.1976 0.474,-0.05 0.948,-0.0973 1.423,-0.143 0.6,-0.057 1.2,-0.1101 1.802,-0.1601 0.459,-0.0379 0.919,-0.0739 1.38,-0.1071 0.634,-0.0461 1.27,-0.0851 1.907,-0.1211 0.431,-0.025 0.861,-0.0519 1.293,-0.0718 0.714,-0.034 1.429,-0.059 2.146,-0.0821 0.359,-0.0109 0.717,-0.0269 1.076,-0.0359 1.079,-0.0262 2.16,-0.041 3.244,-0.041 1.356,0 2.705,0.0269 4.05,0.0668 0.407,0.0121 0.813,0.0301 1.219,0.0461 0.973,0.0383 1.943,0.0859 2.911,0.1441"
         style="fill:#253a4a;fill-opacity:1;fill-rule:nonzero;stroke:none"
         id="path24"
         inkscape:connector-curvature="0" /><path
         d="m 451.091,202.618 c 0,-73.567 -59.638,-133.2051 -133.205,-133.2051 -73.567,0 -133.204,59.6381 -133.204,133.2051 0,73.567 59.637,133.205 133.204,133.205 73.567,0 133.205,-59.638 133.205,-133.205"
         style="fill:#4897c9;fill-opacity:1;fill-rule:nonzero;stroke:none"
         id="path90"
         inkscape:connector-curvature="0" /><path
         d="m 371.989,106.631 c -3.42,-2.885 -6.929,-5.883 -11.193,-7.2369 -7.806,-2.48 -16.083,1.0339 -24.18,2.2609 -19.77,2.997 -38.767,-7.7698 -55.664,-18.4609 -2.969,-1.8781 -5.983,-3.7769 -9.039,-5.63 14.33,-5.2692 29.815,-8.1512 45.973,-8.1512 47.93,0 89.931,25.3273 113.395,63.3151 -1.571,0.205 -3.147,0.341 -4.721,0.33 -20.64,-0.147 -38.793,-13.12 -54.571,-26.427"
         style="fill:#3a6eb4;fill-opacity:1;fill-rule:nonzero;stroke:none"
         id="path158"
         inkscape:connector-curvature="0" /><path
         d="m 185.826,219.831 c 9.018,-3.335 17.366,-10.164 26.698,-8.399 13.39,2.534 18.657,20.987 31.855,24.379 7.146,1.836 14.48,-1.332 21.568,-3.382 30.436,-8.799 65.959,5.224 82.177,32.442 3.236,5.429 5.971,11.526 11.189,15.092 12.917,8.826 30.476,-3.187 45.864,-0.371 6.132,1.122 10.918,4.39 14.508,8.898 -13.833,16.382 -31.543,29.369 -51.721,37.563 -1.542,-1.425 -3.219,-2.673 -5.113,-3.633 -6.708,-3.396 -14.645,-2.644 -22.146,-3.166 -17.931,-1.247 -35.132,-10.67 -45.835,-25.109 -7.618,-10.278 -13.879,-24.171 -26.527,-26.093 -6.845,-1.04 -13.556,1.969 -20.138,4.118 -13.565,4.428 -28.263,5.308 -42.269,2.592 -10.481,-16.232 -17.521,-34.878 -20.11,-54.931"
         style="fill:#3a6eb4;fill-opacity:1;fill-rule:nonzero;stroke:none"
         id="path160"
         inkscape:connector-curvature="0" /><path
         d="m 437.128,261.984 c -3.772,-6.503 -9.823,-11.509 -15.716,-16.284 -20.681,-16.759 -41.362,-33.518 -62.042,-50.278 -8.544,-6.922 -17.409,-14.016 -27.995,-16.991 -25.264,-7.099 -53.346,10.907 -77.773,1.319 -9.677,-3.799 -17.234,-11.451 -25.775,-17.376 -9.565,-6.636 -20.941,-11.103 -32.46,-12.086 4.917,-11.496 11.407,-22.155 19.196,-31.718 0.187,0.088 0.373,0.184 0.561,0.27 10.438,4.805 21.909,8.179 33.332,6.945 19.878,-2.149 40.124,-17.727 57.869,-8.514 8.501,4.414 13.56,13.57 21.588,18.795 18.741,12.199 45.544,-0.941 65.408,9.33 18.472,9.551 22.817,34.822 39.18,47.656 5.423,4.255 11.967,6.98 18.588,9.507 l 0.002,0.059 c 0,21.338 -5.045,41.487 -13.963,59.366"
         style="fill:#3a6eb4;fill-opacity:1;fill-rule:nonzero;stroke:none"
         id="path162"
         inkscape:connector-curvature="0" /></g><path
       inkscape:connector-curvature="0"
       id="path230"
       style="fill:#ffffff;fill-opacity:1;fill-rule:nonzero;stroke:none"
       d="m 2192.0358,-652.37531 c 1.01,0.3179 1.312,1.1519 1.312,2.1039 0,0.898 -0.29,2.239 -1.332,2.239 -1.876,0 -2.702,-3.0289 -3.001,-5.3 l 3.021,0.9571 z m 8.002,3.1172 c 0,-3.2442 -1.81,-5.3883 -6.321,-6.3172 l -4.733,-0.977 c 0.364,-2.0402 1.645,-3.0371 3.774,-3.0371 2.607,0 4.352,1.968 4.352,1.968 0,0 1.33,-0.7418 1.33,-2.2649 0,-2.7019 -4.144,-5.6332 -8.964,-5.6332 -4.89,0 -8.081,3.0903 -8.081,8.3082 0,6.0282 4.271,14.2059 11.872,14.2059 4.163,0 6.771,-2.466 6.771,-6.2527" /><path
       inkscape:connector-curvature="0"
       id="path232"
       style="fill:#ffffff;fill-opacity:1;fill-rule:nonzero;stroke:none"
       d="m 2212.7808,-643.00541 c 3.835,0 6.717,-2.0328 6.717,-4.6719 0,-3.3 -3.995,-4.5058 -3.995,-4.5058 0,0 -1.172,3.6039 -3.858,3.6039 -1.82,0 -2.868,-1.8411 -2.868,-5.7672 0,-3.616 0.952,-5.243 3.291,-5.243 2.401,0 3.878,1.6352 3.878,1.6352 0,0 1.332,-0.7411 1.332,-2.2223 0,-2.5859 -3.98,-5.343 -8.614,-5.343 -4.934,0 -7.974,3.0903 -7.974,8.2274 0,6.109 4.367,14.2867 12.094,14.2867 l 0,0" /><path
       inkscape:connector-curvature="0"
       id="path234"
       style="fill:#ffffff;fill-opacity:1;fill-rule:nonzero;stroke:none"
       d="m 2231.2078,-638.19251 c 0.924,0 1.539,-0.7047 1.539,-0.7047 l -0.722,-4.543 4.812,0 -1.085,-3.4633 c -0.352,-1.1148 -0.906,-1.7308 -2.034,-1.7308 l -2.514,0 -1.402,-8.8512 c -0.228,-1.4309 0.084,-2.093 1.058,-2.1039 0.885,-0.006 1.758,0.5402 1.758,0.5402 0,0 1.343,-0.748 1.343,-2.1523 0,-2.1668 -3.09,-4.318 -7.001,-4.318 -4.148,0 -5.821,2.5383 -5.118,6.9793 l 1.566,9.9059 -2.61,0 1.136,3.6129 c 0.292,0.9269 1.057,1.5812 1.993,1.5812 l 1.269,0 1.521,4.1821 c 1.883,0.4617 3.637,1.0656 4.491,1.0656" /><path
       inkscape:connector-curvature="0"
       id="path236"
       style="fill:#ffffff;fill-opacity:1;fill-rule:nonzero;stroke:none"
       d="m 2246.5718,-652.37531 c 1.009,0.3179 1.312,1.1519 1.312,2.1039 0,0.898 -0.292,2.239 -1.332,2.239 -1.876,0 -2.705,-3.0289 -3.002,-5.3 l 3.022,0.9571 z m 8,3.1172 c 0,-3.2442 -1.809,-5.3883 -6.32,-6.3172 l -4.734,-0.977 c 0.366,-2.0402 1.647,-3.0371 3.773,-3.0371 2.607,0 4.353,1.968 4.353,1.968 0,0 1.332,-0.7418 1.332,-2.2649 0,-2.7019 -4.144,-5.6332 -8.964,-5.6332 -4.892,0 -8.081,3.0903 -8.081,8.3082 0,6.0282 4.269,14.2059 11.872,14.2059 4.162,0 6.771,-2.466 6.771,-6.2527 l 0,0" /><path
       inkscape:connector-curvature="0"
       id="path238"
       style="fill:#ffffff;fill-opacity:1;fill-rule:nonzero;stroke:none"
       d="m 2265.8788,-652.37531 c 1.009,0.3179 1.312,1.1519 1.312,2.1039 0,0.898 -0.294,2.239 -1.332,2.239 -1.876,0 -2.705,-3.0289 -3.003,-5.3 l 3.023,0.9571 z m 7.999,3.1172 c 0,-3.2442 -1.809,-5.3883 -6.319,-6.3172 l -4.734,-0.977 c 0.364,-2.0402 1.646,-3.0371 3.773,-3.0371 2.61,0 4.352,1.968 4.352,1.968 0,0 1.333,-0.7418 1.333,-2.2649 0,-2.7019 -4.144,-5.6332 -8.964,-5.6332 -4.892,0 -8.083,3.0903 -8.083,8.3082 0,6.0282 4.273,14.2059 11.872,14.2059 4.164,0 6.773,-2.466 6.773,-6.2527 l 0,0" /></g></svg>