<?xml version="1.0" encoding="UTF-8" standalone="no"?>
<!-- Created with Inkscape (http://www.inkscape.org/) -->

<svg
   xmlns:dc="http://purl.org/dc/elements/1.1/"
   xmlns:cc="http://creativecommons.org/ns#"
   xmlns:rdf="http://www.w3.org/1999/02/22-rdf-syntax-ns#"
   xmlns:svg="http://www.w3.org/2000/svg"
   xmlns="http://www.w3.org/2000/svg"
   xmlns:sodipodi="http://sodipodi.sourceforge.net/DTD/sodipodi-0.dtd"
   xmlns:inkscape="http://www.inkscape.org/namespaces/inkscape"
   id="svg2"
   version="1.1"
   inkscape:version="0.91 r"
   xml:space="preserve"
   width="333.01501"
   height="347.17749"
   viewBox="0 0 333.01502 347.1775"
   sodipodi:docname="planet1.svg"><metadata
     id="metadata8"><rdf:RDF><cc:Work
         rdf:about=""><dc:format>image/svg+xml</dc:format><dc:type
           rdf:resource="http://purl.org/dc/dcmitype/StillImage" /><dc:title /></cc:Work></rdf:RDF></metadata><defs
     id="defs6" /><sodipodi:namedview
     pagecolor="#ffffff"
     bordercolor="#666666"
     borderopacity="1"
     objecttolerance="10"
     gridtolerance="10"
     guidetolerance="10"
     inkscape:pageopacity="0"
     inkscape:pageshadow="2"
     inkscape:window-width="1920"
     inkscape:window-height="1028"
     id="namedview4"
     showgrid="false"
     fit-margin-top="0"
     fit-margin-left="0"
     fit-margin-right="0"
     fit-margin-bottom="0"
     inkscape:zoom="0.19265306"
     inkscape:cx="-1295.9946"
     inkscape:cy="-1105.841"
     inkscape:window-x="0"
     inkscape:window-y="25"
     inkscape:window-maximized="1"
     inkscape:current-layer="g10" /><g
     id="g10"
     inkscape:groupmode="layer"
     inkscape:label="ink_ext_XXXXXX"
     transform="matrix(1.25,0,0,-1.25,-2758.4854,1854.3408)"><g
       id="g4569"
       transform="translate(1258.2203,556.44067)"><path
         d="m 1081.77,649.29 c 24.99,0 48.36,6.885 68.34,18.851 l 0,0.001 c 0.75,0.449 1.5,0.907 2.24,1.37 0.14,0.09 0.28,0.178 0.43,0.268 0.65,0.411 1.29,0.828 1.94,1.25 0.23,0.15 0.46,0.301 0.68,0.452 0.58,0.386 1.16,0.776 1.73,1.17 0.29,0.197 0.58,0.396 0.86,0.595 0.53,0.367 1.05,0.736 1.57,1.11 0.33,0.238 0.66,0.478 0.98,0.718 0.48,0.352 0.96,0.704 1.43,1.062 0.37,0.276 0.73,0.557 1.09,0.836 0.44,0.336 0.87,0.671 1.3,1.011 0.41,0.318 0.8,0.64 1.2,0.962 0.39,0.316 0.78,0.631 1.17,0.952 0.45,0.372 0.89,0.751 1.33,1.128 0.34,0.283 0.67,0.561 1,0.847 0.64,0.554 1.27,1.117 1.9,1.683 27.03,24.38 44.02,59.673 44.02,98.938 0,73.567 -59.64,133.205 -133.21,133.205 -73.56,0 -133.202,-59.638 -133.202,-133.205 0,-73.567 59.642,-133.204 133.202,-133.204"
         style="fill:#253a4a;fill-opacity:1;fill-rule:nonzero;stroke:none"
         id="path20"
         inkscape:connector-curvature="0" /><path
         d="m 1214.98,793.827 c 0,-73.567 -59.64,-133.204 -133.21,-133.204 -73.56,0 -133.202,59.637 -133.202,133.204 0,73.567 59.642,133.205 133.202,133.205 73.57,0 133.21,-59.638 133.21,-133.205"
         style="fill:#86d7dd;fill-opacity:1;fill-rule:nonzero;stroke:none"
         id="path82"
         inkscape:connector-curvature="0" /><g
         id="g4564"><path
           inkscape:connector-curvature="0"
           id="path116"
           style="fill:#67c374;fill-opacity:1;fill-rule:nonzero;stroke:none"
           d="m 1124.26,911.57 c -12.63,-6.193 -27.05,-16.995 -23.96,-30.709 0.84,-3.726 3.01,-7.306 2.47,-11.088 -1.3,-9.185 -17.27,-15.063 -12.27,-22.88 17.67,-8.485 40.55,-4.444 54.24,9.583 3.46,3.537 6.5,7.726 10.97,9.843 12.13,5.75 26.84,-6.615 39.4,-2.513 -14.68,23.727 -36.6,42.491 -62.68,53.228 -2.24,-2.251 -5.34,-4.072 -8.17,-5.464" /><path
           inkscape:connector-curvature="0"
           id="path118"
           style="fill:#67c374;fill-opacity:1;fill-rule:nonzero;stroke:none"
           d="m 962.334,852.807 c 3.689,-2.265 7.701,-4.028 11.807,-5.142 14.959,-4.061 30.819,-1.642 46.119,0.801 9.58,5.349 -0.38,20.211 2.1,30.897 1.01,4.334 4.17,7.813 6.01,11.862 3.53,7.747 1.91,15.972 -1.88,23.786 -27.88,-12.739 -50.594,-34.793 -64.156,-62.204" /><path
           inkscape:connector-curvature="0"
           id="path120"
           style="fill:#67c374;fill-opacity:1;fill-rule:nonzero;stroke:none"
           d="m 1171.33,695.222 c 0.11,19.187 16.85,39.46 6.22,55.403 -5.63,8.435 -17.19,11.524 -22.45,20.193 -4.5,7.423 -3.57,17.729 -9.68,23.897 -3.43,3.467 -8.44,4.851 -13.28,5.44 -22.18,2.698 -45.4,-9.895 -55.24,-29.952 -2.6,-5.295 -4.38,-11.086 -8.04,-15.707 -12,-15.12 -39.78,-12.923 -47.6,-30.569 -4.04,-9.11 -0.24,-20.379 7.2,-27 7.45,-6.621 17.76,-9.198 27.72,-9.399 4.03,-0.081 8.3,0.137 11.84,-1.796 4.55,-2.475 6.63,-7.732 8.79,-12.432 2.03,-4.419 4.41,-8.627 7.09,-12.624 33.64,0.529 64.26,13.493 87.43,34.546" /></g></g><path
       inkscape:connector-curvature="0"
       id="path230"
       style="fill:#ffffff;fill-opacity:1;fill-rule:nonzero;stroke:none"
       d="m 2192.0358,-652.37531 c 1.01,0.3179 1.312,1.1519 1.312,2.1039 0,0.898 -0.29,2.239 -1.332,2.239 -1.876,0 -2.702,-3.0289 -3.001,-5.3 l 3.021,0.9571 z m 8.002,3.1172 c 0,-3.2442 -1.81,-5.3883 -6.321,-6.3172 l -4.733,-0.977 c 0.364,-2.0402 1.645,-3.0371 3.774,-3.0371 2.607,0 4.352,1.968 4.352,1.968 0,0 1.33,-0.7418 1.33,-2.2649 0,-2.7019 -4.144,-5.6332 -8.964,-5.6332 -4.89,0 -8.081,3.0903 -8.081,8.3082 0,6.0282 4.271,14.2059 11.872,14.2059 4.163,0 6.771,-2.466 6.771,-6.2527" /><path
       inkscape:connector-curvature="0"
       id="path232"
       style="fill:#ffffff;fill-opacity:1;fill-rule:nonzero;stroke:none"
       d="m 2212.7808,-643.00541 c 3.835,0 6.717,-2.0328 6.717,-4.6719 0,-3.3 -3.995,-4.5058 -3.995,-4.5058 0,0 -1.172,3.6039 -3.858,3.6039 -1.82,0 -2.868,-1.8411 -2.868,-5.7672 0,-3.616 0.952,-5.243 3.291,-5.243 2.401,0 3.878,1.6352 3.878,1.6352 0,0 1.332,-0.7411 1.332,-2.2223 0,-2.5859 -3.98,-5.343 -8.614,-5.343 -4.934,0 -7.974,3.0903 -7.974,8.2274 0,6.109 4.367,14.2867 12.094,14.2867 l 0,0" /><path
       inkscape:connector-curvature="0"
       id="path234"
       style="fill:#ffffff;fill-opacity:1;fill-rule:nonzero;stroke:none"
       d="m 2231.2078,-638.19251 c 0.924,0 1.539,-0.7047 1.539,-0.7047 l -0.722,-4.543 4.812,0 -1.085,-3.4633 c -0.352,-1.1148 -0.906,-1.7308 -2.034,-1.7308 l -2.514,0 -1.402,-8.8512 c -0.228,-1.4309 0.084,-2.093 1.058,-2.1039 0.885,-0.006 1.758,0.5402 1.758,0.5402 0,0 1.343,-0.748 1.343,-2.1523 0,-2.1668 -3.09,-4.318 -7.001,-4.318 -4.148,0 -5.821,2.5383 -5.118,6.9793 l 1.566,9.9059 -2.61,0 1.136,3.6129 c 0.292,0.9269 1.057,1.5812 1.993,1.5812 l 1.269,0 1.521,4.1821 c 1.883,0.4617 3.637,1.0656 4.491,1.0656" /><path
       inkscape:connector-curvature="0"
       id="path236"
       style="fill:#ffffff;fill-opacity:1;fill-rule:nonzero;stroke:none"
       d="m 2246.5718,-652.37531 c 1.009,0.3179 1.312,1.1519 1.312,2.1039 0,0.898 -0.292,2.239 -1.332,2.239 -1.876,0 -2.705,-3.0289 -3.002,-5.3 l 3.022,0.9571 z m 8,3.1172 c 0,-3.2442 -1.809,-5.3883 -6.32,-6.3172 l -4.734,-0.977 c 0.366,-2.0402 1.647,-3.0371 3.773,-3.0371 2.607,0 4.353,1.968 4.353,1.968 0,0 1.332,-0.7418 1.332,-2.2649 0,-2.7019 -4.144,-5.6332 -8.964,-5.6332 -4.892,0 -8.081,3.0903 -8.081,8.3082 0,6.0282 4.269,14.2059 11.872,14.2059 4.162,0 6.771,-2.466 6.771,-6.2527 l 0,0" /><path
       inkscape:connector-curvature="0"
       id="path238"
       style="fill:#ffffff;fill-opacity:1;fill-rule:nonzero;stroke:none"
       d="m 2265.8788,-652.37531 c 1.009,0.3179 1.312,1.1519 1.312,2.1039 0,0.898 -0.294,2.239 -1.332,2.239 -1.876,0 -2.705,-3.0289 -3.003,-5.3 l 3.023,0.9571 z m 7.999,3.1172 c 0,-3.2442 -1.809,-5.3883 -6.319,-6.3172 l -4.734,-0.977 c 0.364,-2.0402 1.646,-3.0371 3.773,-3.0371 2.61,0 4.352,1.968 4.352,1.968 0,0 1.333,-0.7418 1.333,-2.2649 0,-2.7019 -4.144,-5.6332 -8.964,-5.6332 -4.892,0 -8.083,3.0903 -8.083,8.3082 0,6.0282 4.273,14.2059 11.872,14.2059 4.164,0 6.773,-2.466 6.773,-6.2527 l 0,0" /></g></svg>