<?xml version="1.0" encoding="UTF-8" standalone="no"?>
<!-- Created with Inkscape (http://www.inkscape.org/) -->

<svg
   xmlns:dc="http://purl.org/dc/elements/1.1/"
   xmlns:cc="http://creativecommons.org/ns#"
   xmlns:rdf="http://www.w3.org/1999/02/22-rdf-syntax-ns#"
   xmlns:svg="http://www.w3.org/2000/svg"
   xmlns="http://www.w3.org/2000/svg"
   xmlns:sodipodi="http://sodipodi.sourceforge.net/DTD/sodipodi-0.dtd"
   xmlns:inkscape="http://www.inkscape.org/namespaces/inkscape"
   id="svg2"
   version="1.1"
   inkscape:version="0.91 r"
   xml:space="preserve"
   width="333.01126"
   height="347.17749"
   viewBox="0 0 333.01126 347.1775"
   sodipodi:docname="planet4.svg"><metadata
     id="metadata8"><rdf:RDF><cc:Work
         rdf:about=""><dc:format>image/svg+xml</dc:format><dc:type
           rdf:resource="http://purl.org/dc/dcmitype/StillImage" /><dc:title /></cc:Work></rdf:RDF></metadata><defs
     id="defs6" /><sodipodi:namedview
     pagecolor="#ffffff"
     bordercolor="#666666"
     borderopacity="1"
     objecttolerance="10"
     gridtolerance="10"
     guidetolerance="10"
     inkscape:pageopacity="0"
     inkscape:pageshadow="2"
     inkscape:window-width="1920"
     inkscape:window-height="1028"
     id="namedview4"
     showgrid="false"
     fit-margin-top="0"
     fit-margin-left="0"
     fit-margin-right="0"
     fit-margin-bottom="0"
     inkscape:zoom="0.19265306"
     inkscape:cx="-1993.8485"
     inkscape:cy="-5.4172386"
     inkscape:window-x="0"
     inkscape:window-y="25"
     inkscape:window-maximized="1"
     inkscape:current-layer="g10" /><g
     id="g10"
     inkscape:groupmode="layer"
     inkscape:label="ink_ext_XXXXXX"
     transform="matrix(1.25,0,0,-1.25,-2563.5428,753.91711)"><g
       id="g4542"
       transform="translate(1486.6102,-323.89831)"><path
         d="m 830.548,787.022 c -0.022,0.652 -0.043,1.304 -0.074,1.953 -0.027,0.548 -0.062,1.093 -0.095,1.639 -0.03,0.506 -0.06,1.012 -0.096,1.517 -0.046,0.638 -0.099,1.273 -0.154,1.909 -0.034,0.391 -0.067,0.783 -0.104,1.174 -0.069,0.725 -0.145,1.448 -0.225,2.17 -0.031,0.272 -0.061,0.544 -0.093,0.815 -0.098,0.829 -0.203,1.656 -0.315,2.48 -0.016,0.119 -0.033,0.237 -0.05,0.355 -9.024,64.79 -64.64,114.665 -131.914,114.665 -69.512,0 -126.577,-53.248 -132.658,-121.177 -0.029,-0.316 -0.058,-0.632 -0.084,-0.949 -0.05,-0.605 -0.095,-1.212 -0.137,-1.82 -0.034,-0.489 -0.064,-0.978 -0.093,-1.469 -0.029,-0.508 -0.058,-1.016 -0.082,-1.526 -0.029,-0.638 -0.052,-1.277 -0.072,-1.916 -0.013,-0.395 -0.029,-0.788 -0.038,-1.183 -0.025,-1.053 -0.04,-2.107 -0.04,-3.165 0,-1.292 0.023,-2.578 0.059,-3.861 0.01,-0.323 0.025,-0.645 0.037,-0.967 0.036,-1.006 0.081,-2.01 0.139,-3.01 0.017,-0.279 0.035,-0.557 0.053,-0.836 0.074,-1.14 0.161,-2.277 0.263,-3.41 0.009,-0.098 0.017,-0.196 0.026,-0.293 6.245,-67.763 63.235,-120.827 132.627,-120.827 69.306,0 126.24,52.931 132.605,120.572 0.017,0.182 0.032,0.365 0.048,0.547 0.097,1.071 0.18,2.146 0.251,3.225 0.022,0.332 0.044,0.664 0.064,0.997 0.056,0.974 0.101,1.951 0.136,2.93 0.013,0.349 0.03,0.697 0.04,1.047 0.037,1.291 0.061,2.586 0.061,3.886 0,1.092 -0.015,2.181 -0.042,3.267 -0.01,0.421 -0.029,0.841 -0.043,1.261"
         style="fill:#253a4a;fill-opacity:1;fill-rule:nonzero;stroke:none"
         id="path18"
         inkscape:connector-curvature="0" /><path
         d="m 830.633,793.827 c 0,-73.567 -59.638,-133.204 -133.205,-133.204 -73.567,0 -133.204,59.637 -133.204,133.204 0,73.567 59.637,133.205 133.204,133.205 73.567,0 133.205,-59.638 133.205,-133.205"
         style="fill:#fabdb4;fill-opacity:1;fill-rule:nonzero;stroke:none"
         id="path80"
         inkscape:connector-curvature="0" /><path
         d="m 830.633,793.827 c 0,16.598 -3.06,32.474 -8.607,47.129 C 758.91,786.612 688.467,739.599 608.569,717.41 c -5.648,-1.569 -11.402,-2.997 -17.203,-4.146 17.148,-22.54 41.313,-39.424 69.24,-47.445 9.044,1.873 18.005,4.132 26.836,6.944 52.903,16.841 97.495,51.257 139.196,88.635 2.597,10.383 3.995,21.241 3.995,32.429"
         style="fill:#f4aa95;fill-opacity:1;fill-rule:nonzero;stroke:none"
         id="path96"
         inkscape:connector-curvature="0" /><path
         d="m 776.971,840.248 c 10.687,9.294 20.275,19.817 28.653,31.232 -17.837,24.809 -43.969,43.244 -74.361,51.203 -47.209,-38.04 -101.687,-67.036 -159.602,-84.963 -4.798,-13.747 -7.437,-28.508 -7.437,-43.893 0,-11.03 1.365,-21.736 3.892,-31.986 44.178,4.877 87.701,15.707 128.961,32.235 28.689,11.492 56.575,25.892 79.894,46.172"
         style="fill:#f4aa95;fill-opacity:1;fill-rule:nonzero;stroke:none"
         id="path98"
         inkscape:connector-curvature="0" /></g><path
       inkscape:connector-curvature="0"
       id="path230"
       style="fill:#ffffff;fill-opacity:1;fill-rule:nonzero;stroke:none"
       d="m 2192.0358,-652.37531 c 1.01,0.3179 1.312,1.1519 1.312,2.1039 0,0.898 -0.29,2.239 -1.332,2.239 -1.876,0 -2.702,-3.0289 -3.001,-5.3 l 3.021,0.9571 z m 8.002,3.1172 c 0,-3.2442 -1.81,-5.3883 -6.321,-6.3172 l -4.733,-0.977 c 0.364,-2.0402 1.645,-3.0371 3.774,-3.0371 2.607,0 4.352,1.968 4.352,1.968 0,0 1.33,-0.7418 1.33,-2.2649 0,-2.7019 -4.144,-5.6332 -8.964,-5.6332 -4.89,0 -8.081,3.0903 -8.081,8.3082 0,6.0282 4.271,14.2059 11.872,14.2059 4.163,0 6.771,-2.466 6.771,-6.2527" /><path
       inkscape:connector-curvature="0"
       id="path232"
       style="fill:#ffffff;fill-opacity:1;fill-rule:nonzero;stroke:none"
       d="m 2212.7808,-643.00541 c 3.835,0 6.717,-2.0328 6.717,-4.6719 0,-3.3 -3.995,-4.5058 -3.995,-4.5058 0,0 -1.172,3.6039 -3.858,3.6039 -1.82,0 -2.868,-1.8411 -2.868,-5.7672 0,-3.616 0.952,-5.243 3.291,-5.243 2.401,0 3.878,1.6352 3.878,1.6352 0,0 1.332,-0.7411 1.332,-2.2223 0,-2.5859 -3.98,-5.343 -8.614,-5.343 -4.934,0 -7.974,3.0903 -7.974,8.2274 0,6.109 4.367,14.2867 12.094,14.2867 l 0,0" /><path
       inkscape:connector-curvature="0"
       id="path234"
       style="fill:#ffffff;fill-opacity:1;fill-rule:nonzero;stroke:none"
       d="m 2231.2078,-638.19251 c 0.924,0 1.539,-0.7047 1.539,-0.7047 l -0.722,-4.543 4.812,0 -1.085,-3.4633 c -0.352,-1.1148 -0.906,-1.7308 -2.034,-1.7308 l -2.514,0 -1.402,-8.8512 c -0.228,-1.4309 0.084,-2.093 1.058,-2.1039 0.885,-0.006 1.758,0.5402 1.758,0.5402 0,0 1.343,-0.748 1.343,-2.1523 0,-2.1668 -3.09,-4.318 -7.001,-4.318 -4.148,0 -5.821,2.5383 -5.118,6.9793 l 1.566,9.9059 -2.61,0 1.136,3.6129 c 0.292,0.9269 1.057,1.5812 1.993,1.5812 l 1.269,0 1.521,4.1821 c 1.883,0.4617 3.637,1.0656 4.491,1.0656" /><path
       inkscape:connector-curvature="0"
       id="path236"
       style="fill:#ffffff;fill-opacity:1;fill-rule:nonzero;stroke:none"
       d="m 2246.5718,-652.37531 c 1.009,0.3179 1.312,1.1519 1.312,2.1039 0,0.898 -0.292,2.239 -1.332,2.239 -1.876,0 -2.705,-3.0289 -3.002,-5.3 l 3.022,0.9571 z m 8,3.1172 c 0,-3.2442 -1.809,-5.3883 -6.32,-6.3172 l -4.734,-0.977 c 0.366,-2.0402 1.647,-3.0371 3.773,-3.0371 2.607,0 4.353,1.968 4.353,1.968 0,0 1.332,-0.7418 1.332,-2.2649 0,-2.7019 -4.144,-5.6332 -8.964,-5.6332 -4.892,0 -8.081,3.0903 -8.081,8.3082 0,6.0282 4.269,14.2059 11.872,14.2059 4.162,0 6.771,-2.466 6.771,-6.2527 l 0,0" /><path
       inkscape:connector-curvature="0"
       id="path238"
       style="fill:#ffffff;fill-opacity:1;fill-rule:nonzero;stroke:none"
       d="m 2265.8788,-652.37531 c 1.009,0.3179 1.312,1.1519 1.312,2.1039 0,0.898 -0.294,2.239 -1.332,2.239 -1.876,0 -2.705,-3.0289 -3.003,-5.3 l 3.023,0.9571 z m 7.999,3.1172 c 0,-3.2442 -1.809,-5.3883 -6.319,-6.3172 l -4.734,-0.977 c 0.364,-2.0402 1.646,-3.0371 3.773,-3.0371 2.61,0 4.352,1.968 4.352,1.968 0,0 1.333,-0.7418 1.333,-2.2649 0,-2.7019 -4.144,-5.6332 -8.964,-5.6332 -4.892,0 -8.083,3.0903 -8.083,8.3082 0,6.0282 4.273,14.2059 11.872,14.2059 4.164,0 6.773,-2.466 6.773,-6.2527 l 0,0" /></g></svg>