<?xml version="1.0" encoding="UTF-8" standalone="no"?>
<!-- Created with Inkscape (http://www.inkscape.org/) -->

<svg
   xmlns:dc="http://purl.org/dc/elements/1.1/"
   xmlns:cc="http://creativecommons.org/ns#"
   xmlns:rdf="http://www.w3.org/1999/02/22-rdf-syntax-ns#"
   xmlns:svg="http://www.w3.org/2000/svg"
   xmlns="http://www.w3.org/2000/svg"
   xmlns:sodipodi="http://sodipodi.sourceforge.net/DTD/sodipodi-0.dtd"
   xmlns:inkscape="http://www.inkscape.org/namespaces/inkscape"
   id="svg2"
   version="1.1"
   inkscape:version="0.91 r"
   xml:space="preserve"
   width="191.83472"
   height="206.29196"
   viewBox="0 0 191.83472 206.29196"
   sodipodi:docname="rocket.svg"><metadata
     id="metadata8"><rdf:RDF><cc:Work
         rdf:about=""><dc:format>image/svg+xml</dc:format><dc:type
           rdf:resource="http://purl.org/dc/dcmitype/StillImage" /><dc:title></dc:title></cc:Work></rdf:RDF></metadata><defs
     id="defs6"><clipPath
       clipPathUnits="userSpaceOnUse"
       id="clipPath1196"><path
         d="m 2235.35,1351.21 0,0.82 c -0.09,37.21 -11.62,74.38 -34.6,97.4 l -707.7,707.71 c -23.1,23.02 -60.44,34.52 -97.78,34.52 -37.35,0 -74.69,-11.5 -97.78,-34.52 L 589.824,1449.43 c -23.094,-23.11 -34.644,-60.46 -34.644,-97.81 l 0,0 c 0,37.35 11.55,74.7 34.644,97.81 l 707.666,707.71 c 23.09,23.02 60.43,34.52 97.78,34.52 37.34,0 74.68,-11.5 97.78,-34.52 l 707.7,-707.71 c 23.06,-23.11 34.6,-60.46 34.6,-97.81 0,-0.14 0,-0.27 0,-0.41"
         id="path1198"
         inkscape:connector-curvature="0" /></clipPath><linearGradient
       x1="0"
       y1="0"
       x2="1"
       y2="0"
       gradientUnits="userSpaceOnUse"
       gradientTransform="matrix(1680.17,0,0,-1680.17,555.181,1351.6)"
       spreadMethod="pad"
       id="linearGradient1200"><stop
         style="stop-opacity:1;stop-color:#fabc35"
         offset="0"
         id="stop1202" /><stop
         style="stop-opacity:1;stop-color:#fabc35"
         offset="0.0537634"
         id="stop1204" /><stop
         style="stop-opacity:1;stop-color:#b8781c"
         offset="0.5"
         id="stop1206" /><stop
         style="stop-opacity:1;stop-color:#b8781c"
         offset="0.5"
         id="stop1208" /><stop
         style="stop-opacity:1;stop-color:#b8781c"
         offset="0.935484"
         id="stop1210" /><stop
         style="stop-opacity:1;stop-color:#b8781c"
         offset="1"
         id="stop1212" /></linearGradient><clipPath
       clipPathUnits="userSpaceOnUse"
       id="clipPath1220"><path
         d="m 1395.27,511.539 c -37.35,0 -74.69,11.531 -97.78,34.57 L 589.824,1253.88 c -23.094,23.06 -34.644,60.39 -34.644,97.74 0,37.35 11.55,74.7 34.644,97.81 l 707.666,707.71 c 23.09,23.02 60.43,34.52 97.78,34.52 37.34,0 74.68,-11.5 97.78,-34.52 l 707.7,-707.71 c 22.98,-23.02 34.51,-60.19 34.6,-97.4 l 0,-0.82 c -0.09,-37.21 -11.62,-74.36 -34.6,-97.33 l -707.7,-707.771 c -23.1,-23.039 -60.44,-34.57 -97.78,-34.57 m 0.09,1615.441 c -18.1,0 -36.21,-5.56 -47.38,-16.7 l -711.425,-711.4 c -11.075,-11.1 -16.684,-32.61 -16.684,-47.27 0,-14.6 5.609,-36.14 16.754,-47.26 L 1347.98,592.781 c 11.15,-11.07 29.24,-16.601 47.31,-16.601 18.08,0 36.14,5.531 47.24,16.601 l 711.41,711.569 c 22.25,22.21 22.29,72.28 0,94.53 l -711.41,711.51 c -11.09,11.06 -29.12,16.59 -47.17,16.59"
         id="path1222"
         inkscape:connector-curvature="0" /></clipPath><clipPath
       clipPathUnits="userSpaceOnUse"
       id="clipPath1232"><path
         d="m 1395.29,576.18 c -18.07,0 -36.16,5.531 -47.31,16.601 L 636.625,1304.35 c -11.145,11.12 -16.754,32.66 -16.754,47.26 0,14.66 5.609,36.17 16.684,47.27 l 711.425,711.4 c 11.17,11.14 29.28,16.7 47.38,16.7 18.05,0 36.08,-5.53 47.17,-16.59 l 711.41,-711.51 c 22.29,-22.25 22.25,-72.32 0,-94.53 L 1442.53,592.781 c -11.1,-11.07 -29.16,-16.601 -47.24,-16.601 m -26.09,1503.67 c -3.99,-5.94 -40.7,-54.36 -687.708,-701.45 -7.117,-7.18 -11.043,-16.7 -11.043,-26.79 0,-10.15 3.926,-19.69 11.043,-26.83 L 1368.49,624.082 c 7.05,-7.203 16.6,-11.242 26.8,-11.242 10.09,0 19.7,4.039 26.8,11.242 l 686.97,700.718 c 14.79,14.82 14.79,38.83 0,53.6 l -686.97,700.77 c -7.39,7.39 -17.1,11.09 -26.81,11.09 -9.41,0 -18.8,-3.47 -26.08,-10.41 0.23,0.35 0.36,0.55 0.48,0.72 l 0.18,0.21 c -0.07,-0.07 -0.12,-0.13 -0.18,-0.21 l -1.22,-1.45 c 0.24,0.25 0.49,0.49 0.74,0.73"
         id="path1234"
         inkscape:connector-curvature="0" /></clipPath><clipPath
       clipPathUnits="userSpaceOnUse"
       id="clipPath1244"><path
         d="m 1395.29,612.84 c -10.2,0 -19.75,4.039 -26.8,11.242 L 681.492,1324.78 c -7.117,7.14 -11.043,16.68 -11.043,26.83 0,10.09 3.926,19.61 11.043,26.79 647.008,647.09 683.718,695.51 687.708,701.45 7.28,6.94 16.67,10.41 26.08,10.41 9.71,0 19.42,-3.7 26.81,-11.09 l 686.97,-700.77 c 14.79,-14.77 14.79,-38.78 0,-53.6 L 1422.09,624.082 c -7.1,-7.203 -16.71,-11.242 -26.8,-11.242 m -0.04,95.441 c -8.58,0 -17.16,-3.281 -23.67,-9.832 -13.11,-13.051 -13.11,-34.367 0,-47.347 6.51,-6.551 15.09,-9.832 23.67,-9.832 8.59,0 17.17,3.281 23.71,9.832 13.1,12.98 13.1,34.296 0,47.347 -6.54,6.551 -15.12,9.832 -23.71,9.832 m -157.1,225.481 -0.49,-0.653 c 22.04,20.321 75.97,68.441 92.63,68.441 2.02,0 3.49,-0.71 4.29,-2.249 0.57,-1.09 1.05,-1.52 1.45,-1.52 1.52,0 1.84,6.439 1.84,6.439 0,0 15.23,56.9 2.78,56.9 -4.74,0 -13.49,-8.25 -28.63,-31.04 -36.21,-54.58 -61.13,-83.182 -73.93,-96.35 l 0.06,0.032 m -201.35,58.679 -0.44,-0.82 c 22.02,19.029 74.36,61.699 101.04,61.699 5.4,0 9.74,-1.74 12.58,-5.78 1.45,-2.06 2.37,-2.85 2.93,-2.85 1.87,0 -0.22,8.66 -0.22,8.66 0,0 -1.86,82.11 -21.86,82.11 -6.68,0 -15.38,-9.15 -26.72,-33.56 -29.94,-64.4 -54.25,-95.64 -67.32,-109.521 l 0.01,0.062 m 187,140.979 83.97,-83.98 33.58,33.61 -0.32,10.01 c 0,0.28 -0.28,12.17 3.31,31.93 3.13,-0.19 6.32,-0.3 9.58,-0.3 12.09,0 25.07,1.43 38.83,4.87 -28.58,-32.25 -44.9,-60.58 -37.77,-67.72 1.12,-1.12 2.77,-1.66 4.88,-1.66 13.99,0 48.18,23.68 82.82,58.33 39.87,39.87 65.24,79.11 56.65,87.67 -1.13,1.14 -2.8,1.69 -4.93,1.69 -10.81,0 -33.56,-14.06 -59.29,-36.37 -0.08,0 -0.16,0 -0.24,0 -21.33,0 -47.17,3.57 -71.47,16.31 4.03,9.53 8.78,19.55 14.39,29.92 31.55,58.34 79.79,87.27 130.86,117.84 83.55,50.08 178.28,106.84 196.76,302.31 l 2.62,27.63 -27.61,-2.61 c -195.51,-18.47 -252.27,-113.21 -302.34,-196.81 -30.59,-51.03 -59.5,-99.3 -117.84,-130.82 -9.79,-5.29 -19.26,-9.82 -28.31,-13.7 -11.84,22.04 -15.85,45.72 -16.34,66.39 25.63,29.94 39.75,55.52 33.02,62.26 -1.13,1.11 -2.77,1.65 -4.88,1.65 -4.95,0 -12.43,-2.96 -21.56,-8.33 0.27,0.97 0.43,1.48 0.43,1.48 -0.67,-0.8 -1.33,-1.61 -1.99,-2.41 -16.49,-9.97 -38.02,-27.36 -59.73,-49.07 -39.85,-39.84 -65.21,-79.1 -56.61,-87.67 1.13,-1.13 2.79,-1.67 4.91,-1.67 10.64,0 32.88,13.63 58.11,35.34 -2.87,-13.79 -3.77,-26.6 -3.32,-38.31 -15.16,-2.53 -25.03,-2.71 -27.66,-2.71 -0.44,0 -0.67,0.01 -0.7,0.01 l -9.94,0.33 -7.13,-7.04 -26.59,-26.55 84.78,-84.78 c -5.19,-0.97 -11.19,-1.56 -18.09,-1.56 -7.8,0 -16.75,0.76 -27,2.58 l 92.95,-92.93 c 0,0 -3.45,23.03 -0.79,44.84 m -138.44,179.67 c -4.74,0 -13.48,-8.25 -28.61,-31.04 -36.27,-54.58 -61.145,-83.18 -73.934,-96.35 l 0.036,0 -0.504,-0.65 c 22.062,20.33 76.002,68.5 92.662,68.5 2.01,0 3.48,-0.71 4.29,-2.25 0.57,-1.09 1.04,-1.53 1.44,-1.53 1.52,0 1.84,6.42 1.84,6.42 0,0 15.21,56.9 2.78,56.9 m 309.89,739.88 c -8.58,0 -17.16,-3.29 -23.67,-9.85 -13.11,-13.06 -13.11,-34.35 0,-47.38 6.51,-6.55 15.09,-9.83 23.67,-9.83 8.59,0 17.17,3.28 23.71,9.83 13.1,13.03 13.1,34.32 0,47.38 -6.54,6.56 -15.12,9.85 -23.71,9.85 m -26.79,26.15 1.22,1.45 c -0.12,-0.17 -0.25,-0.37 -0.48,-0.72 -0.25,-0.24 -0.5,-0.48 -0.74,-0.73 m 1.22,1.45 c 0.06,0.08 0.11,0.14 0.18,0.21 l -0.18,-0.21"
         id="path1246"
         inkscape:connector-curvature="0" /></clipPath><clipPath
       clipPathUnits="userSpaceOnUse"
       id="clipPath1256"><path
         d="m 1307.77,1049.44 -83.97,83.98 c 1.51,12.36 4.98,24.33 12.14,31.48 l -3.29,3.61 c 14.58,10.25 31.7,24.77 48.92,42 8.71,8.71 16.73,17.39 23.85,25.73 28.67,30.73 45.58,59.3 38.53,66.37 -1.07,1.07 -2.65,1.58 -4.66,1.58 -6.29,0 -16.82,-5.03 -29.47,-13.78 -16.44,-10.01 -37.78,-27.31 -59.3,-48.85 -16.72,-16.71 -30.88,-33.32 -41.06,-47.6 l -2.39,2.62 c 0,0 -7.19,-11.77 -30.34,-16.09 l -84.78,84.78 26.59,26.55 7.13,7.04 9.94,-0.33 c 0.03,0 0.26,-0.01 0.7,-0.01 2.63,0 12.5,0.18 27.66,2.71 1.98,-52.09 30.55,-82.65 30.55,-82.65 l 58.23,74.98 c -8.74,8.74 -15.56,18.21 -20.82,28.01 9.05,3.88 18.52,8.41 28.31,13.7 58.34,31.52 87.25,79.79 117.84,130.82 50.07,83.6 106.83,178.34 302.34,196.81 l 27.61,2.61 -2.62,-27.63 c -18.48,-195.47 -113.21,-252.23 -196.76,-302.31 -51.07,-30.57 -99.31,-59.5 -130.86,-117.84 -5.61,-10.37 -10.36,-20.39 -14.39,-29.92 -10.59,5.55 -20.89,12.84 -30.39,22.35 l -77.57,-49.69 c 0,0 34.03,-32.02 88.9,-35.48 -3.59,-19.76 -3.31,-31.65 -3.31,-31.93 l 0.32,-10.01 -33.58,-33.61 m 82.42,337.11 c -0.97,-9.69 2.25,-19.72 9.66,-27.14 6.57,-6.56 15.17,-9.85 23.77,-9.85 8.59,0 17.19,3.29 23.76,9.85 13.11,13.11 13.11,34.41 0.02,47.49 -6.56,6.56 -15.16,9.85 -23.77,9.85 -1.19,0 -2.38,-0.07 -3.57,-0.19 -0.99,0.1 -1.98,0.16 -2.96,0.16 -6.93,0 -13.86,-2.64 -19.14,-7.92 -6.08,-6.08 -8.67,-14.32 -7.77,-22.25 m 72.83,73.56 c -0.99,-9.71 2.22,-19.76 9.64,-27.19 6.56,-6.55 15.15,-9.82 23.75,-9.82 8.6,0 17.21,3.28 23.78,9.85 13.12,13.1 13.14,34.37 0,47.48 -6.57,6.57 -15.16,9.85 -23.76,9.85 -1.19,0 -2.38,-0.06 -3.57,-0.19 -0.98,0.11 -1.96,0.16 -2.94,0.16 -6.93,0 -13.85,-2.63 -19.13,-7.9 -6.07,-6.09 -8.66,-14.33 -7.77,-22.24 m 68.59,66.45 c 1.03,-8.63 4.85,-17 11.48,-23.62 7.84,-7.86 18.12,-11.79 28.41,-11.79 10.28,0 20.57,3.93 28.42,11.79 15.69,15.69 15.69,41.15 0.02,56.86 -7.86,7.85 -18.14,11.77 -28.43,11.77 -1.19,0 -2.38,-0.05 -3.57,-0.15 -1.09,0.1 -2.19,0.15 -3.29,0.15 -8.86,0 -17.72,-3.38 -24.48,-10.13 -9.43,-9.45 -12.29,-22.97 -8.56,-34.88 m 148.36,116.81 c -5.99,-21.46 -13.52,-40.46 -22.03,-57.6 5.53,-2.99 11.25,-5.93 17.32,-8.61 7.69,22.29 14.15,47.23 19.15,75.52 -35.15,-6.19 -65.37,-14.48 -91.74,-24.4 1.89,-2.04 3.92,-4.02 5.97,-6.03 24.36,9.86 48.97,17.4 71.33,21.12"
         id="path1258"
         inkscape:connector-curvature="0" /></clipPath><clipPath
       clipPathUnits="userSpaceOnUse"
       id="clipPath1268"><path
         d="m 1353.92,1124.69 c -3.26,0 -6.45,0.11 -9.58,0.3 -54.87,3.46 -88.9,35.48 -88.9,35.48 l 77.57,49.69 c 9.5,-9.51 19.8,-16.8 30.39,-22.35 24.3,-12.74 50.14,-16.31 71.47,-16.31 0.08,0 0.16,0 0.24,0 -7.65,-6.63 -15.56,-14 -23.5,-21.94 -6.73,-6.73 -13.05,-13.45 -18.86,-20 -13.76,-3.44 -26.74,-4.87 -38.83,-4.87"
         id="path1270"
         inkscape:connector-curvature="0" /></clipPath><clipPath
       clipPathUnits="userSpaceOnUse"
       id="clipPath1280"><path
         d="m 1194.52,1218.58 c 0,0 -28.57,30.56 -30.55,82.65 -0.45,11.71 0.45,24.52 3.32,38.31 8.02,6.9 16.33,14.61 24.67,22.95 8.62,8.62 16.57,17.21 23.63,25.47 0.49,-20.67 4.5,-44.35 16.34,-66.39 5.26,-9.8 12.08,-19.27 20.82,-28.01 l -58.23,-74.98 m 26.09,224.03 c 0.66,0.8 1.32,1.61 1.99,2.41 0,0 -0.16,-0.51 -0.43,-1.48 -0.51,-0.3 -1.04,-0.61 -1.56,-0.93"
         id="path1282"
         inkscape:connector-curvature="0" /></clipPath><clipPath
       clipPathUnits="userSpaceOnUse"
       id="clipPath1292"><path
         d="m 1224.59,1088.58 -92.95,92.93 c 10.25,-1.82 19.2,-2.58 27,-2.58 6.9,0 12.9,0.59 18.09,1.56 23.15,4.32 30.34,16.09 30.34,16.09 l 2.39,-2.62 c -14.11,-19.79 -20.58,-35.12 -15.58,-40.1 1.12,-1.13 2.78,-1.67 4.9,-1.67 7.03,0 19.16,5.98 33.87,16.32 l 3.29,-3.61 c -7.16,-7.15 -10.63,-19.12 -12.14,-31.48 -2.66,-21.81 0.79,-44.84 0.79,-44.84"
         id="path1294"
         inkscape:connector-curvature="0" /></clipPath><clipPath
       clipPathUnits="userSpaceOnUse"
       id="clipPath1304"><path
         d="m 1109.18,1304.2 c -2.12,0 -3.78,0.54 -4.91,1.67 -8.6,8.57 16.76,47.83 56.61,87.67 21.71,21.71 43.24,39.1 59.73,49.07 0.52,0.32 1.05,0.63 1.56,0.93 9.13,5.37 16.61,8.33 21.56,8.33 2.11,0 3.75,-0.54 4.88,-1.65 6.73,-6.74 -7.39,-32.32 -33.02,-62.26 -7.06,-8.26 -15.01,-16.85 -23.63,-25.47 -8.34,-8.34 -16.65,-16.05 -24.67,-22.95 -25.23,-21.71 -47.47,-35.34 -58.11,-35.34"
         id="path1306"
         inkscape:connector-curvature="0" /></clipPath><clipPath
       clipPathUnits="userSpaceOnUse"
       id="clipPath1316"><path
         d="m 1359.86,1060.18 c -2.11,0 -3.76,0.54 -4.88,1.66 -7.13,7.14 9.19,35.47 37.77,67.72 5.81,6.55 12.13,13.27 18.86,20 7.94,7.94 15.85,15.31 23.5,21.94 25.73,22.31 48.48,36.37 59.29,36.37 2.13,0 3.8,-0.55 4.93,-1.69 8.59,-8.56 -16.78,-47.8 -56.65,-87.67 -34.64,-34.65 -68.83,-58.33 -82.82,-58.33"
         id="path1318"
         inkscape:connector-curvature="0" /></clipPath><clipPath
       clipPathUnits="userSpaceOnUse"
       id="clipPath1328"><path
         d="m 1198.78,1152.19 c -2.12,0 -3.78,0.54 -4.9,1.67 -5,4.98 1.47,20.31 15.58,40.1 10.18,14.28 24.34,30.89 41.06,47.6 21.52,21.54 42.86,38.84 59.3,48.85 -12.56,-8.68 -27.2,-21.01 -41.88,-35.69 -34.21,-34.18 -55.66,-68.2 -47.85,-76 1.08,-1.08 2.66,-1.6 4.68,-1.6 12.54,-0.01 41.87,20.02 71.34,49.48 3.22,3.22 6.33,6.44 9.31,9.64 -7.12,-8.34 -15.14,-17.02 -23.85,-25.73 -17.22,-17.23 -34.34,-31.75 -48.92,-42 -14.71,-10.34 -26.84,-16.32 -33.87,-16.32"
         id="path1330"
         inkscape:connector-curvature="0" /></clipPath><clipPath
       clipPathUnits="userSpaceOnUse"
       id="clipPath1340"><path
         d="m 1224.77,1177.12 c -2.02,0 -3.6,0.52 -4.68,1.6 -7.81,7.8 13.64,41.82 47.85,76 14.68,14.68 29.32,27.01 41.88,35.69 12.65,8.75 23.18,13.78 29.47,13.78 2.01,0 3.59,-0.51 4.66,-1.58 7.05,-7.07 -9.86,-35.64 -38.53,-66.37 -2.98,-3.2 -6.09,-6.42 -9.31,-9.64 -29.47,-29.46 -58.8,-49.49 -71.34,-49.48"
         id="path1342"
         inkscape:connector-curvature="0" /></clipPath><clipPath
       clipPathUnits="userSpaceOnUse"
       id="clipPath1352"><path
         d="m 1571.5,1491.15 c -10.29,0 -20.57,3.93 -28.41,11.79 -6.63,6.62 -10.45,14.99 -11.48,23.62 1.61,-5.16 4.46,-10.01 8.55,-14.1 6.75,-6.77 15.61,-10.15 24.46,-10.15 8.87,0 17.73,3.39 24.5,10.18 13.54,13.52 13.54,35.4 0.01,48.95 -5.92,5.92 -13.45,9.24 -21.19,9.98 1.19,0.1 2.38,0.15 3.57,0.15 10.29,0 20.57,-3.92 28.43,-11.77 15.67,-15.71 15.67,-41.17 -0.02,-56.86 -7.85,-7.86 -18.14,-11.79 -28.42,-11.79"
         id="path1354"
         inkscape:connector-curvature="0" /></clipPath><clipPath
       clipPathUnits="userSpaceOnUse"
       id="clipPath1364"><path
         d="m 1564.62,1502.31 c -8.85,0 -17.71,3.38 -24.46,10.15 -4.09,4.09 -6.94,8.94 -8.55,14.1 -3.73,11.91 -0.87,25.43 8.56,34.88 6.76,6.75 15.62,10.13 24.48,10.13 1.1,0 2.2,-0.05 3.29,-0.15 7.74,-0.74 15.27,-4.06 21.19,-9.98 13.53,-13.55 13.53,-35.43 -0.01,-48.95 -6.77,-6.79 -15.63,-10.18 -24.5,-10.18"
         id="path1366"
         inkscape:connector-curvature="0" /></clipPath><clipPath
       clipPathUnits="userSpaceOnUse"
       id="clipPath1376"><path
         d="m 1496.41,1423.1 c -8.6,0 -17.19,3.27 -23.75,9.82 -7.42,7.43 -10.63,17.48 -9.64,27.19 0.66,-5.87 3.25,-11.56 7.75,-16.07 5.28,-5.27 12.21,-7.91 19.14,-7.91 6.93,0 13.87,2.64 19.16,7.91 10.57,10.58 10.57,27.71 0,38.31 -4.54,4.52 -10.29,7.1 -16.21,7.74 1.19,0.13 2.38,0.19 3.57,0.19 8.6,0 17.19,-3.28 23.76,-9.85 13.14,-13.11 13.12,-34.38 0,-47.48 -6.57,-6.57 -15.18,-9.85 -23.78,-9.85"
         id="path1378"
         inkscape:connector-curvature="0" /></clipPath><clipPath
       clipPathUnits="userSpaceOnUse"
       id="clipPath1388"><path
         d="m 1423.62,1349.56 c -8.6,0 -17.2,3.29 -23.77,9.85 -7.41,7.42 -10.63,17.45 -9.66,27.14 0.67,-5.86 3.25,-11.55 7.75,-16.06 5.28,-5.26 12.21,-7.89 19.14,-7.89 6.93,0 13.88,2.63 19.17,7.91 10.56,10.58 10.56,27.71 0,38.29 -4.54,4.52 -10.28,7.11 -16.19,7.76 1.19,0.12 2.38,0.19 3.57,0.19 8.61,0 17.21,-3.29 23.77,-9.85 13.09,-13.08 13.09,-34.38 -0.02,-47.49 -6.57,-6.56 -15.17,-9.85 -23.76,-9.85"
         id="path1390"
         inkscape:connector-curvature="0" /></clipPath><clipPath
       clipPathUnits="userSpaceOnUse"
       id="clipPath1400"><path
         d="m 1675.26,1577.16 c -6.07,2.68 -11.79,5.62 -17.32,8.61 8.51,17.14 16.04,36.14 22.03,57.6 -22.36,-3.72 -46.97,-11.26 -71.33,-21.12 -2.05,2.01 -4.08,3.99 -5.97,6.03 26.37,9.92 56.59,18.21 91.74,24.4 -5,-28.29 -11.46,-53.23 -19.15,-75.52"
         id="path1402"
         inkscape:connector-curvature="0" /></clipPath><clipPath
       clipPathUnits="userSpaceOnUse"
       id="clipPath1412"><path
         d="m 1036.36,991.621 0.44,0.82 -0.01,-0.062 c 13.07,13.881 37.38,45.121 67.32,109.521 11.34,24.41 20.04,33.56 26.72,33.56 20,0 21.86,-82.11 21.86,-82.11 0,0 2.09,-8.66 0.22,-8.66 -0.56,0 -1.48,0.79 -2.93,2.85 -2.84,4.04 -7.18,5.78 -12.58,5.78 -26.68,0 -79.02,-42.67 -101.04,-61.699"
         id="path1414"
         inkscape:connector-curvature="0" /></clipPath><clipPath
       clipPathUnits="userSpaceOnUse"
       id="clipPath1424"><path
         d="m 982.348,1185.05 0.504,0.65 -0.036,0 c 12.789,13.17 37.664,41.77 73.934,96.35 15.13,22.79 23.87,31.04 28.61,31.04 12.43,0 -2.78,-56.9 -2.78,-56.9 0,0 -0.32,-6.42 -1.84,-6.42 -0.4,0 -0.87,0.44 -1.44,1.53 -0.81,1.54 -2.28,2.25 -4.29,2.25 -16.66,0 -70.6,-48.17 -92.662,-68.5"
         id="path1426"
         inkscape:connector-curvature="0" /></clipPath><clipPath
       clipPathUnits="userSpaceOnUse"
       id="clipPath1436"><path
         d="m 1237.66,933.109 0.49,0.653 -0.06,-0.032 c 12.8,13.168 37.72,41.77 73.93,96.35 15.14,22.79 23.89,31.04 28.63,31.04 12.45,0 -2.78,-56.9 -2.78,-56.9 0,0 -0.32,-6.439 -1.84,-6.439 -0.4,0 -0.88,0.43 -1.45,1.52 -0.8,1.539 -2.27,2.249 -4.29,2.249 -16.66,0 -70.59,-48.12 -92.63,-68.441"
         id="path1438"
         inkscape:connector-curvature="0" /></clipPath><clipPath
       clipPathUnits="userSpaceOnUse"
       id="clipPath1448"><path
         d="m 1489.91,1436.13 c -6.93,0 -13.86,2.64 -19.14,7.91 -4.5,4.51 -7.09,10.2 -7.75,16.07 -0.89,7.91 1.7,16.15 7.77,22.24 5.28,5.27 12.2,7.9 19.13,7.9 0.98,0 1.96,-0.05 2.94,-0.16 5.92,-0.64 11.67,-3.22 16.21,-7.74 10.57,-10.6 10.57,-27.73 0,-38.31 -5.29,-5.27 -12.23,-7.91 -19.16,-7.91"
         id="path1450"
         inkscape:connector-curvature="0" /></clipPath><clipPath
       clipPathUnits="userSpaceOnUse"
       id="clipPath1460"><path
         d="m 1417.08,1362.6 c -6.93,0 -13.86,2.63 -19.14,7.89 -4.5,4.51 -7.08,10.2 -7.75,16.06 -0.9,7.93 1.69,16.17 7.77,22.25 5.28,5.28 12.21,7.92 19.14,7.92 0.98,0 1.97,-0.06 2.96,-0.16 5.91,-0.65 11.65,-3.24 16.19,-7.76 10.56,-10.58 10.56,-27.71 0,-38.29 -5.29,-5.28 -12.24,-7.91 -19.17,-7.91"
         id="path1462"
         inkscape:connector-curvature="0" /></clipPath><clipPath
       clipPathUnits="userSpaceOnUse"
       id="clipPath1472"><path
         d="m 1395.25,641.27 c -8.58,0 -17.16,3.281 -23.67,9.832 -13.11,12.98 -13.11,34.296 0,47.347 6.51,6.551 15.09,9.832 23.67,9.832 8.59,0 17.17,-3.281 23.71,-9.832 13.1,-13.051 13.1,-34.367 0,-47.347 -6.54,-6.551 -15.12,-9.832 -23.71,-9.832 m 0.03,62.492 c -7.4,0 -14.81,-2.821 -20.45,-8.473 -11.27,-11.348 -11.27,-29.66 0,-40.937 5.64,-5.653 13.05,-8.473 20.45,-8.473 7.41,0 14.81,2.82 20.43,8.473 11.27,11.277 11.27,29.589 0,40.937 -5.62,5.652 -13.02,8.473 -20.43,8.473"
         id="path1474"
         inkscape:connector-curvature="0" /></clipPath><clipPath
       clipPathUnits="userSpaceOnUse"
       id="clipPath1484"><path
         d="m 1395.28,645.879 c -7.4,0 -14.81,2.82 -20.45,8.473 -11.27,11.277 -11.27,29.589 0,40.937 5.64,5.652 13.05,8.473 20.45,8.473 7.41,0 14.81,-2.821 20.43,-8.473 11.27,-11.348 11.27,-29.66 0,-40.937 -5.62,-5.653 -13.02,-8.473 -20.43,-8.473 m -9.11,50.07 c -3.07,0 -6.15,-1.168 -8.5,-3.508 -4.68,-4.703 -4.68,-12.312 0,-16.992 2.35,-2.347 5.43,-3.527 8.5,-3.527 3.07,0 6.14,1.18 8.48,3.527 4.66,4.68 4.66,12.289 0,16.992 -2.34,2.34 -5.41,3.508 -8.48,3.508"
         id="path1486"
         inkscape:connector-curvature="0" /></clipPath><clipPath
       clipPathUnits="userSpaceOnUse"
       id="clipPath1496"><path
         d="m 1386.17,671.922 c -3.07,0 -6.15,1.18 -8.5,3.527 -4.68,4.68 -4.68,12.289 0,16.992 2.35,2.34 5.43,3.508 8.5,3.508 3.07,0 6.14,-1.168 8.48,-3.508 4.66,-4.703 4.66,-12.312 0,-16.992 -2.34,-2.347 -5.41,-3.527 -8.48,-3.527"
         id="path1498"
         inkscape:connector-curvature="0" /></clipPath><clipPath
       clipPathUnits="userSpaceOnUse"
       id="clipPath1508"><path
         d="m 1395.25,1985.91 c -8.58,0 -17.16,3.28 -23.67,9.83 -13.11,13.03 -13.11,34.32 0,47.38 6.51,6.56 15.09,9.85 23.67,9.85 8.59,0 17.17,-3.29 23.71,-9.85 13.1,-13.06 13.1,-34.35 0,-47.38 -6.54,-6.55 -15.12,-9.83 -23.71,-9.83 m 0.03,62.51 c -7.4,0 -14.81,-2.83 -20.45,-8.49 -11.27,-11.37 -11.27,-29.64 0,-40.9 5.64,-5.67 13.05,-8.5 20.45,-8.5 7.41,0 14.81,2.83 20.43,8.5 11.27,11.26 11.27,29.53 0,40.9 -5.62,5.66 -13.02,8.49 -20.43,8.49"
         id="path1510"
         inkscape:connector-curvature="0" /></clipPath><clipPath
       clipPathUnits="userSpaceOnUse"
       id="clipPath1520"><path
         d="m 1395.28,1990.53 c -7.4,0 -14.81,2.83 -20.45,8.5 -11.27,11.26 -11.27,29.53 0,40.9 5.64,5.66 13.05,8.49 20.45,8.49 7.41,0 14.81,-2.83 20.43,-8.49 11.27,-11.37 11.27,-29.64 0,-40.9 -5.62,-5.67 -13.02,-8.5 -20.43,-8.5 m -9.11,50.1 c -3.07,0 -6.15,-1.17 -8.5,-3.52 -4.68,-4.77 -4.68,-12.35 0,-17.03 2.35,-2.34 5.43,-3.51 8.5,-3.51 3.07,0 6.14,1.17 8.48,3.51 4.66,4.68 4.66,12.26 0,17.03 -2.34,2.35 -5.41,3.52 -8.48,3.52"
         id="path1522"
         inkscape:connector-curvature="0" /></clipPath><clipPath
       clipPathUnits="userSpaceOnUse"
       id="clipPath1532"><path
         d="m 1386.17,2016.57 c -3.07,0 -6.15,1.17 -8.5,3.51 -4.68,4.68 -4.68,12.26 0,17.03 2.35,2.35 5.43,3.52 8.5,3.52 3.07,0 6.14,-1.17 8.48,-3.52 4.66,-4.77 4.66,-12.35 0,-17.03 -2.34,-2.34 -5.41,-3.51 -8.48,-3.51"
         id="path1534"
         inkscape:connector-curvature="0" /></clipPath></defs><sodipodi:namedview
     pagecolor="#ffffff"
     bordercolor="#666666"
     borderopacity="1"
     objecttolerance="10"
     gridtolerance="10"
     guidetolerance="10"
     inkscape:pageopacity="0"
     inkscape:pageshadow="2"
     inkscape:window-width="1920"
     inkscape:window-height="1028"
     id="namedview4"
     showgrid="false"
     inkscape:zoom="0.67951436"
     inkscape:cx="-166.21028"
     inkscape:cy="-261.5218"
     inkscape:window-x="0"
     inkscape:window-y="25"
     inkscape:window-maximized="1"
     inkscape:current-layer="g10"
     fit-margin-top="0"
     fit-margin-left="0"
     fit-margin-right="0"
     fit-margin-bottom="0" /><g
     id="g10"
     inkscape:groupmode="layer"
     inkscape:label="ink_ext_XXXXXX"
     transform="matrix(1.25,0,0,-1.25,-291.16165,915.49449)"><g
       id="g4887"
       transform="matrix(0.70710678,-0.70710678,0.70710678,0.70710678,-372.40872,410.09581)"><path
         d="m 324.059,546.467 c 0,0 -45.027,19.292 -13.181,20.586 31.846,1.298 41.353,13.051 11.255,18.752 -30.098,5.702 -6.477,5.435 -13.644,10.319 0,0 -24.979,-4.741 3.435,-10.319 28.412,-5.579 4.113,-17.329 -2.315,-12.492 -6.427,4.833 -41.898,-8.504 14.45,-26.846"
         style="fill:#f89e0e;fill-opacity:1;fill-rule:nonzero;stroke:none"
         id="path862"
         inkscape:connector-curvature="0" /><path
         d="m 287.936,601.877 41.6441,0 0,1.975 -41.6441,0 0,-1.975 z"
         style="fill:#bec0c5;fill-opacity:1;fill-rule:nonzero;stroke:none"
         id="path864"
         inkscape:connector-curvature="0" /><path
         d="m 289.664,603.852 38.1918,0 0,3.12695 -38.1918,0 0,-3.12695 z"
         style="fill:#555b69;fill-opacity:1;fill-rule:nonzero;stroke:none"
         id="path866"
         inkscape:connector-curvature="0" /><path
         d="m 293.294,606.979 30.9348,0 0,4.11406 -30.9348,0 0,-4.11406 z"
         style="fill:#bec0c5;fill-opacity:1;fill-rule:nonzero;stroke:none"
         id="path868"
         inkscape:connector-curvature="0" /><path
         d="m 294.897,611.093 27.723,0 0,6.58711 -27.723,0 0,-6.58711 z"
         style="fill:#555b69;fill-opacity:1;fill-rule:nonzero;stroke:none"
         id="path870"
         inkscape:connector-curvature="0" /><path
         d="m 325.989,672.573 c 0,0 -3.549,-15.455 -3.272,-40.395 0,0 13.831,12.204 29.02,0 15.191,-12.206 -4.847,47.433 -25.748,40.395"
         style="fill:#477b99;fill-opacity:1;fill-rule:nonzero;stroke:none"
         id="path872"
         inkscape:connector-curvature="0" /><path
         d="m 291.662,672.573 c 0,0 3.543,-15.455 3.273,-40.395 0,0 -13.835,12.204 -29.023,0 -15.189,-12.206 4.849,47.433 25.75,40.395"
         style="fill:#477b99;fill-opacity:1;fill-rule:nonzero;stroke:none"
         id="path874"
         inkscape:connector-curvature="0" /><path
         d="m 291.432,671.747 c 0,0 2.42,-18.949 -8.121,-34.383 0,0 7.506,-0.732 16.445,0 8.936,0.73 -8.324,34.383 -8.324,34.383"
         style="fill:#2f4e62;fill-opacity:1;fill-rule:nonzero;stroke:none"
         id="path876"
         inkscape:connector-curvature="0" /><path
         d="m 325.909,671.747 c 0,0 -2.419,-18.949 8.117,-34.383 0,0 -7.507,-0.732 -16.441,0 -8.939,0.73 8.324,34.383 8.324,34.383"
         style="fill:#2f4e62;fill-opacity:1;fill-rule:nonzero;stroke:none"
         id="path878"
         inkscape:connector-curvature="0" /><path
         d="m 302.871,758.539 c -9.411,-8.256 -25.844,-29.95 -13.855,-75.132 16.24,-61.175 -34.736,-68.723 3.023,-68.723 0,0 16.951,-1.795 33.231,0 0.946,0 1.819,0.006 2.657,0.017 -30.467,65.004 -31.31,112.855 -25.056,143.838"
         style="fill:#477b99;fill-opacity:1;fill-rule:nonzero;stroke:none"
         id="path880"
         inkscape:connector-curvature="0" /><path
         d="m 328.293,683.407 c 16.237,61.171 -19.637,79.296 -19.637,79.296 0,0 -2.453,-1.244 -5.785,-4.164 -6.254,-30.983 -5.411,-78.834 25.056,-143.838 32.574,0.397 -15.466,9.063 0.366,68.706"
         style="fill:#6895ac;fill-opacity:1;fill-rule:nonzero;stroke:none"
         id="path882"
         inkscape:connector-curvature="0" /><path
         d="m 323.084,718.789 c 0,-7.698 -6.236,-13.937 -13.935,-13.937 -7.696,0 -13.936,6.239 -13.936,13.937 0,7.699 6.24,13.938 13.936,13.938 7.699,0 13.935,-6.239 13.935,-13.938"
         style="fill:#477b99;fill-opacity:1;fill-rule:nonzero;stroke:none"
         id="path884"
         inkscape:connector-curvature="0" /><path
         d="m 322.1,719.698 c 0,-7.693 -6.24,-13.934 -13.94,-13.934 -7.695,0 -13.935,6.241 -13.935,13.934 0,7.698 6.24,13.94 13.935,13.94 7.7,0 13.94,-6.242 13.94,-13.94"
         style="fill:#182831;fill-opacity:1;fill-rule:nonzero;stroke:none"
         id="path886"
         inkscape:connector-curvature="0" /><path
         d="m 321.207,719.473 c 0,-7.08 -5.739,-12.819 -12.815,-12.819 -7.082,0 -12.818,5.739 -12.818,12.819 0,7.076 5.736,12.817 12.818,12.817 7.076,0 12.815,-5.741 12.815,-12.817"
         style="fill:#406477;fill-opacity:1;fill-rule:nonzero;stroke:none"
         id="path888"
         inkscape:connector-curvature="0" /><path
         d="m 319.487,719.473 c 0,-6.127 -4.969,-11.097 -11.095,-11.097 -6.132,0 -11.101,4.97 -11.101,11.097 0,6.129 4.969,11.095 11.101,11.095 6.126,0 11.095,-4.966 11.095,-11.095"
         style="fill:#fddfb0;fill-opacity:1;fill-rule:nonzero;stroke:none"
         id="path890"
         inkscape:connector-curvature="0" /><path
         d="m 319.228,719.473 c 0,-5.985 -4.853,-10.837 -10.836,-10.837 -5.99,0 -10.839,4.852 -10.839,10.837 0,5.984 4.849,10.837 10.839,10.837 5.983,0 10.836,-4.853 10.836,-10.837"
         style="fill:#7692a8;fill-opacity:1;fill-rule:nonzero;stroke:none"
         id="path892"
         inkscape:connector-curvature="0" /><path
         d="m 318.772,719.473 c 0,-5.735 -4.647,-10.385 -10.38,-10.385 -5.739,0 -10.386,4.65 -10.386,10.385 0,5.733 4.647,10.382 10.386,10.382 5.733,0 10.38,-4.649 10.38,-10.382"
         style="fill:#df834d;fill-opacity:1;fill-rule:nonzero;stroke:none"
         id="path894"
         inkscape:connector-curvature="0" /><path
         d="m 308.991,731.452 c 0,-0.333 -0.268,-0.6 -0.599,-0.6 -0.333,0 -0.605,0.267 -0.605,0.6 0,0.33 0.272,0.601 0.605,0.601 0.331,0 0.599,-0.271 0.599,-0.601"
         style="fill:#a6aabe;fill-opacity:1;fill-rule:nonzero;stroke:none"
         id="path896"
         inkscape:connector-curvature="0" /><path
         d="m 308.58,731.605 c 0,-0.156 -0.137,-0.284 -0.303,-0.284 -0.165,0 -0.297,0.128 -0.297,0.284 0,0.161 0.132,0.288 0.297,0.288 0.166,0 0.303,-0.127 0.303,-0.288"
         style="fill:#fddfb0;fill-opacity:1;fill-rule:nonzero;stroke:none"
         id="path898"
         inkscape:connector-curvature="0" /><path
         d="m 308.991,707.47 c 0,-0.333 -0.268,-0.602 -0.599,-0.602 -0.333,0 -0.605,0.269 -0.605,0.602 0,0.329 0.272,0.6 0.605,0.6 0.331,0 0.599,-0.271 0.599,-0.6"
         style="fill:#a6aabe;fill-opacity:1;fill-rule:nonzero;stroke:none"
         id="path900"
         inkscape:connector-curvature="0" /><path
         d="m 308.58,707.626 c 0,-0.156 -0.137,-0.288 -0.303,-0.288 -0.165,0 -0.297,0.132 -0.297,0.288 0,0.159 0.132,0.288 0.297,0.288 0.166,0 0.303,-0.129 0.303,-0.288"
         style="fill:#fddfb0;fill-opacity:1;fill-rule:nonzero;stroke:none"
         id="path902"
         inkscape:connector-curvature="0" /><path
         d="m 320.381,718.859 c 0.333,0 0.601,0.271 0.601,0.6 0,0.333 -0.268,0.605 -0.601,0.605 -0.331,0 -0.603,-0.272 -0.603,-0.605 0,-0.329 0.272,-0.6 0.603,-0.6"
         style="fill:#a6aabe;fill-opacity:1;fill-rule:nonzero;stroke:none"
         id="path904"
         inkscape:connector-curvature="0" /><path
         d="m 320.223,719.271 c 0.158,0 0.289,0.135 0.289,0.303 0,0.166 -0.131,0.299 -0.289,0.299 -0.159,0 -0.284,-0.133 -0.284,-0.299 0,-0.168 0.125,-0.303 0.284,-0.303"
         style="fill:#fddfb0;fill-opacity:1;fill-rule:nonzero;stroke:none"
         id="path906"
         inkscape:connector-curvature="0" /><path
         d="m 296.396,718.859 c 0.334,0 0.606,0.271 0.606,0.6 0,0.333 -0.272,0.605 -0.606,0.605 -0.331,0 -0.6,-0.272 -0.6,-0.605 0,-0.329 0.269,-0.6 0.6,-0.6"
         style="fill:#a6aabe;fill-opacity:1;fill-rule:nonzero;stroke:none"
         id="path908"
         inkscape:connector-curvature="0" /><path
         d="m 296.245,719.271 c 0.156,0 0.285,0.135 0.285,0.303 0,0.166 -0.129,0.299 -0.285,0.299 -0.163,0 -0.287,-0.133 -0.287,-0.299 0,-0.168 0.124,-0.303 0.287,-0.303"
         style="fill:#fddfb0;fill-opacity:1;fill-rule:nonzero;stroke:none"
         id="path910"
         inkscape:connector-curvature="0" /><path
         d="m 316.869,710.38 c 0.331,0 0.601,0.27 0.601,0.604 0,0.33 -0.27,0.6 -0.601,0.6 -0.335,0 -0.601,-0.27 -0.601,-0.6 0,-0.334 0.266,-0.604 0.601,-0.604"
         style="fill:#a6aabe;fill-opacity:1;fill-rule:nonzero;stroke:none"
         id="path912"
         inkscape:connector-curvature="0" /><path
         d="m 316.712,710.792 c 0.157,0 0.285,0.136 0.285,0.299 0,0.171 -0.128,0.304 -0.285,0.304 -0.157,0 -0.287,-0.133 -0.287,-0.304 0,-0.163 0.13,-0.299 0.287,-0.299"
         style="fill:#fddfb0;fill-opacity:1;fill-rule:nonzero;stroke:none"
         id="path914"
         inkscape:connector-curvature="0" /><path
         d="m 299.91,710.38 c 0.331,0 0.604,0.27 0.604,0.604 0,0.33 -0.273,0.6 -0.604,0.6 -0.331,0 -0.601,-0.27 -0.601,-0.6 0,-0.334 0.27,-0.604 0.601,-0.604"
         style="fill:#a6aabe;fill-opacity:1;fill-rule:nonzero;stroke:none"
         id="path916"
         inkscape:connector-curvature="0" /><path
         d="m 299.756,710.792 c 0.158,0 0.283,0.136 0.283,0.299 0,0.171 -0.125,0.304 -0.283,0.304 -0.16,0 -0.287,-0.133 -0.287,-0.304 0,-0.163 0.127,-0.299 0.287,-0.299"
         style="fill:#fddfb0;fill-opacity:1;fill-rule:nonzero;stroke:none"
         id="path918"
         inkscape:connector-curvature="0" /><path
         d="m 316.869,727.338 c 0.331,0 0.601,0.267 0.601,0.601 0,0.332 -0.27,0.601 -0.601,0.601 -0.335,0 -0.601,-0.269 -0.601,-0.601 0,-0.334 0.266,-0.601 0.601,-0.601"
         style="fill:#a6aabe;fill-opacity:1;fill-rule:nonzero;stroke:none"
         id="path920"
         inkscape:connector-curvature="0" /><path
         d="m 316.712,727.747 c 0.157,0 0.285,0.136 0.285,0.303 0,0.167 -0.128,0.302 -0.285,0.302 -0.157,0 -0.287,-0.135 -0.287,-0.302 0,-0.167 0.13,-0.303 0.287,-0.303"
         style="fill:#fddfb0;fill-opacity:1;fill-rule:nonzero;stroke:none"
         id="path922"
         inkscape:connector-curvature="0" /><path
         d="m 299.91,727.338 c 0.331,0 0.604,0.267 0.604,0.601 0,0.332 -0.273,0.601 -0.604,0.601 -0.331,0 -0.601,-0.269 -0.601,-0.601 0,-0.334 0.27,-0.601 0.601,-0.601"
         style="fill:#a6aabe;fill-opacity:1;fill-rule:nonzero;stroke:none"
         id="path924"
         inkscape:connector-curvature="0" /><path
         d="m 299.756,727.747 c 0.158,0 0.283,0.136 0.283,0.303 0,0.167 -0.125,0.302 -0.283,0.302 -0.16,0 -0.287,-0.135 -0.287,-0.302 0,-0.167 0.127,-0.303 0.287,-0.303"
         style="fill:#fddfb0;fill-opacity:1;fill-rule:nonzero;stroke:none"
         id="path926"
         inkscape:connector-curvature="0" /><path
         d="m 317.973,719.473 c 0,-5.295 -4.292,-9.582 -9.581,-9.582 -5.294,0 -9.584,4.287 -9.584,9.582 0,5.293 4.29,9.581 9.584,9.581 5.289,0 9.581,-4.288 9.581,-9.581"
         style="fill:#3a575b;fill-opacity:1;fill-rule:nonzero;stroke:none"
         id="path928"
         inkscape:connector-curvature="0" /><path
         d="m 315.229,712.762 -13.476,13.624 c -0.541,-0.521 -1.02,-1.104 -1.427,-1.74 l 13.15,-13.294 c 0.639,0.399 1.228,0.875 1.753,1.41"
         style="fill:#4a6761;fill-opacity:1;fill-rule:nonzero;stroke:none"
         id="path930"
         inkscape:connector-curvature="0" /><path
         d="m 298.852,720.373 10.331,-10.448 c 1.167,0.093 2.281,0.4 3.291,0.878 l -12.707,12.851 c -0.493,-1.008 -0.808,-2.115 -0.915,-3.281"
         style="fill:#4a6761;fill-opacity:1;fill-rule:nonzero;stroke:none"
         id="path932"
         inkscape:connector-curvature="0" /><path
         d="m 319.872,689.774 c 0,-5.986 -4.851,-10.834 -10.831,-10.834 -5.985,0 -10.836,4.848 -10.836,10.834 0,5.983 4.851,10.833 10.836,10.833 5.98,0 10.831,-4.85 10.831,-10.833"
         style="fill:#477b99;fill-opacity:1;fill-rule:nonzero;stroke:none"
         id="path934"
         inkscape:connector-curvature="0" /><path
         d="m 319.103,690.483 c 0,-5.981 -4.849,-10.833 -10.831,-10.833 -5.984,0 -10.834,4.852 -10.834,10.833 0,5.983 4.85,10.833 10.834,10.833 5.982,0 10.831,-4.85 10.831,-10.833"
         style="fill:#182831;fill-opacity:1;fill-rule:nonzero;stroke:none"
         id="path936"
         inkscape:connector-curvature="0" /><path
         d="m 318.412,690.307 c 0,-5.503 -4.462,-9.967 -9.965,-9.967 -5.502,0 -9.962,4.464 -9.962,9.967 0,5.499 4.46,9.962 9.962,9.962 5.503,0 9.965,-4.463 9.965,-9.962"
         style="fill:#406477;fill-opacity:1;fill-rule:nonzero;stroke:none"
         id="path938"
         inkscape:connector-curvature="0" /><path
         d="m 317.075,690.307 c 0,-4.764 -3.861,-8.629 -8.628,-8.629 -4.763,0 -8.625,3.865 -8.625,8.629 0,4.762 3.862,8.625 8.625,8.625 4.767,0 8.628,-3.863 8.628,-8.625"
         style="fill:#fddfb0;fill-opacity:1;fill-rule:nonzero;stroke:none"
         id="path940"
         inkscape:connector-curvature="0" /><path
         d="m 316.873,690.307 c 0,-4.654 -3.771,-8.424 -8.426,-8.424 -4.651,0 -8.422,3.77 -8.422,8.424 0,4.653 3.771,8.423 8.422,8.423 4.655,0 8.426,-3.77 8.426,-8.423"
         style="fill:#7692a8;fill-opacity:1;fill-rule:nonzero;stroke:none"
         id="path942"
         inkscape:connector-curvature="0" /><path
         d="m 316.519,690.307 c 0,-4.457 -3.613,-8.075 -8.072,-8.075 -4.455,0 -8.069,3.618 -8.069,8.075 0,4.457 3.614,8.069 8.069,8.069 4.459,0 8.072,-3.612 8.072,-8.069"
         style="fill:#df834d;fill-opacity:1;fill-rule:nonzero;stroke:none"
         id="path944"
         inkscape:connector-curvature="0" /><path
         d="m 308.914,699.619 c 0,-0.261 -0.208,-0.469 -0.467,-0.469 -0.255,0 -0.467,0.208 -0.467,0.469 0,0.257 0.212,0.466 0.467,0.466 0.259,0 0.467,-0.209 0.467,-0.466"
         style="fill:#a6aabe;fill-opacity:1;fill-rule:nonzero;stroke:none"
         id="path946"
         inkscape:connector-curvature="0" /><path
         d="m 308.596,699.737 c 0,-0.122 -0.107,-0.221 -0.236,-0.221 -0.129,0 -0.23,0.099 -0.23,0.221 0,0.125 0.101,0.225 0.23,0.225 0.129,0 0.236,-0.1 0.236,-0.225"
         style="fill:#fddfb0;fill-opacity:1;fill-rule:nonzero;stroke:none"
         id="path948"
         inkscape:connector-curvature="0" /><path
         d="m 308.914,680.977 c 0,-0.26 -0.208,-0.47 -0.467,-0.47 -0.255,0 -0.467,0.21 -0.467,0.47 0,0.256 0.212,0.464 0.467,0.464 0.259,0 0.467,-0.208 0.467,-0.464"
         style="fill:#a6aabe;fill-opacity:1;fill-rule:nonzero;stroke:none"
         id="path950"
         inkscape:connector-curvature="0" /><path
         d="m 308.596,681.098 c 0,-0.126 -0.107,-0.222 -0.236,-0.222 -0.129,0 -0.23,0.096 -0.23,0.222 0,0.122 0.101,0.222 0.23,0.222 0.129,0 0.236,-0.1 0.236,-0.222"
         style="fill:#fddfb0;fill-opacity:1;fill-rule:nonzero;stroke:none"
         id="path952"
         inkscape:connector-curvature="0" /><path
         d="m 317.769,689.83 c 0.259,0 0.468,0.209 0.468,0.465 0,0.261 -0.209,0.47 -0.468,0.47 -0.257,0 -0.466,-0.209 -0.466,-0.47 0,-0.256 0.209,-0.465 0.466,-0.465"
         style="fill:#a6aabe;fill-opacity:1;fill-rule:nonzero;stroke:none"
         id="path954"
         inkscape:connector-curvature="0" /><path
         d="m 317.647,690.146 c 0.122,0 0.224,0.109 0.224,0.237 0,0.128 -0.102,0.236 -0.224,0.236 -0.121,0 -0.222,-0.108 -0.222,-0.236 0,-0.128 0.101,-0.237 0.222,-0.237"
         style="fill:#fddfb0;fill-opacity:1;fill-rule:nonzero;stroke:none"
         id="path956"
         inkscape:connector-curvature="0" /><path
         d="m 299.127,689.83 c 0.258,0 0.469,0.209 0.469,0.465 0,0.261 -0.211,0.47 -0.469,0.47 -0.258,0 -0.468,-0.209 -0.468,-0.47 0,-0.256 0.21,-0.465 0.468,-0.465"
         style="fill:#a6aabe;fill-opacity:1;fill-rule:nonzero;stroke:none"
         id="path958"
         inkscape:connector-curvature="0" /><path
         d="m 299.006,690.146 c 0.125,0 0.223,0.109 0.223,0.237 0,0.128 -0.098,0.236 -0.223,0.236 -0.123,0 -0.223,-0.108 -0.223,-0.236 0,-0.128 0.1,-0.237 0.223,-0.237"
         style="fill:#fddfb0;fill-opacity:1;fill-rule:nonzero;stroke:none"
         id="path960"
         inkscape:connector-curvature="0" /><path
         d="m 315.038,683.237 c 0.259,0 0.47,0.211 0.47,0.469 0,0.256 -0.211,0.468 -0.47,0.468 -0.257,0 -0.466,-0.212 -0.466,-0.468 0,-0.258 0.209,-0.469 0.466,-0.469"
         style="fill:#a6aabe;fill-opacity:1;fill-rule:nonzero;stroke:none"
         id="path962"
         inkscape:connector-curvature="0" /><path
         d="m 314.917,683.556 c 0.121,0 0.224,0.107 0.224,0.236 0,0.129 -0.103,0.232 -0.224,0.232 -0.123,0 -0.22,-0.103 -0.22,-0.232 0,-0.129 0.097,-0.236 0.22,-0.236"
         style="fill:#fddfb0;fill-opacity:1;fill-rule:nonzero;stroke:none"
         id="path964"
         inkscape:connector-curvature="0" /><path
         d="m 301.858,683.237 c 0.259,0 0.464,0.211 0.464,0.469 0,0.256 -0.205,0.468 -0.464,0.468 -0.258,0 -0.468,-0.212 -0.468,-0.468 0,-0.258 0.21,-0.469 0.468,-0.469"
         style="fill:#a6aabe;fill-opacity:1;fill-rule:nonzero;stroke:none"
         id="path966"
         inkscape:connector-curvature="0" /><path
         d="m 301.735,683.556 c 0.123,0 0.225,0.107 0.225,0.236 0,0.129 -0.102,0.232 -0.225,0.232 -0.122,0 -0.222,-0.103 -0.222,-0.232 0,-0.129 0.1,-0.236 0.222,-0.236"
         style="fill:#fddfb0;fill-opacity:1;fill-rule:nonzero;stroke:none"
         id="path968"
         inkscape:connector-curvature="0" /><path
         d="m 315.038,696.421 c 0.259,0 0.47,0.209 0.47,0.465 0,0.257 -0.211,0.468 -0.47,0.468 -0.257,0 -0.466,-0.211 -0.466,-0.468 0,-0.256 0.209,-0.465 0.466,-0.465"
         style="fill:#a6aabe;fill-opacity:1;fill-rule:nonzero;stroke:none"
         id="path970"
         inkscape:connector-curvature="0" /><path
         d="m 314.917,696.74 c 0.121,0 0.224,0.105 0.224,0.233 0,0.129 -0.103,0.236 -0.224,0.236 -0.123,0 -0.22,-0.107 -0.22,-0.236 0,-0.128 0.097,-0.233 0.22,-0.233"
         style="fill:#fddfb0;fill-opacity:1;fill-rule:nonzero;stroke:none"
         id="path972"
         inkscape:connector-curvature="0" /><path
         d="m 301.858,696.421 c 0.259,0 0.464,0.209 0.464,0.465 0,0.257 -0.205,0.468 -0.464,0.468 -0.258,0 -0.468,-0.211 -0.468,-0.468 0,-0.256 0.21,-0.465 0.468,-0.465"
         style="fill:#a6aabe;fill-opacity:1;fill-rule:nonzero;stroke:none"
         id="path974"
         inkscape:connector-curvature="0" /><path
         d="m 301.735,696.74 c 0.123,0 0.225,0.105 0.225,0.233 0,0.129 -0.102,0.236 -0.225,0.236 -0.122,0 -0.222,-0.107 -0.222,-0.236 0,-0.128 0.1,-0.233 0.222,-0.233"
         style="fill:#fddfb0;fill-opacity:1;fill-rule:nonzero;stroke:none"
         id="path976"
         inkscape:connector-curvature="0" /><path
         d="m 315.898,690.307 c 0,-4.116 -3.337,-7.448 -7.451,-7.448 -4.114,0 -7.447,3.332 -7.447,7.448 0,4.11 3.333,7.447 7.447,7.447 4.114,0 7.451,-3.337 7.451,-7.447"
         style="fill:#3a575b;fill-opacity:1;fill-rule:nonzero;stroke:none"
         id="path978"
         inkscape:connector-curvature="0" /><path
         d="m 313.764,685.088 -10.475,10.591 c -0.418,-0.405 -0.793,-0.855 -1.11,-1.349 l 10.224,-10.337 c 0.496,0.309 0.954,0.677 1.361,1.095"
         style="fill:#4a6761;fill-opacity:1;fill-rule:nonzero;stroke:none"
         id="path980"
         inkscape:connector-curvature="0" /><path
         d="m 301.034,691.004 8.031,-8.121 c 0.908,0.073 1.77,0.312 2.56,0.683 l -9.878,9.99 c -0.381,-0.785 -0.629,-1.646 -0.713,-2.552"
         style="fill:#4a6761;fill-opacity:1;fill-rule:nonzero;stroke:none"
         id="path982"
         inkscape:connector-curvature="0" /><path
         d="m 316.709,666.581 c 0,-4.296 -3.485,-7.775 -7.779,-7.775 -4.294,0 -7.777,3.479 -7.777,7.775 0,4.294 3.483,7.777 7.777,7.777 4.294,0 7.779,-3.483 7.779,-7.777"
         style="fill:#477b99;fill-opacity:1;fill-rule:nonzero;stroke:none"
         id="path984"
         inkscape:connector-curvature="0" /><path
         d="m 316.158,667.087 c 0,-4.291 -3.485,-7.774 -7.778,-7.774 -4.298,0 -7.775,3.483 -7.775,7.774 0,4.298 3.477,7.777 7.775,7.777 4.293,0 7.778,-3.479 7.778,-7.777"
         style="fill:#182831;fill-opacity:1;fill-rule:nonzero;stroke:none"
         id="path986"
         inkscape:connector-curvature="0" /><path
         d="m 315.658,666.962 c 0,-3.947 -3.202,-7.153 -7.152,-7.153 -3.949,0 -7.151,3.206 -7.151,7.153 0,3.953 3.202,7.153 7.151,7.153 3.95,0 7.152,-3.2 7.152,-7.153"
         style="fill:#406477;fill-opacity:1;fill-rule:nonzero;stroke:none"
         id="path988"
         inkscape:connector-curvature="0" /><path
         d="m 314.7,666.962 c 0,-3.421 -2.775,-6.19 -6.194,-6.19 -3.417,0 -6.19,2.769 -6.19,6.19 0,3.421 2.773,6.19 6.19,6.19 3.419,0 6.194,-2.769 6.194,-6.19"
         style="fill:#fddfb0;fill-opacity:1;fill-rule:nonzero;stroke:none"
         id="path990"
         inkscape:connector-curvature="0" /><path
         d="m 314.554,666.962 c 0,-3.337 -2.706,-6.045 -6.048,-6.045 -3.339,0 -6.048,2.708 -6.048,6.045 0,3.341 2.709,6.049 6.048,6.049 3.342,0 6.048,-2.708 6.048,-6.049"
         style="fill:#7692a8;fill-opacity:1;fill-rule:nonzero;stroke:none"
         id="path992"
         inkscape:connector-curvature="0" /><path
         d="m 314.299,666.962 c 0,-3.202 -2.591,-5.795 -5.793,-5.795 -3.198,0 -5.792,2.593 -5.792,5.795 0,3.198 2.594,5.795 5.792,5.795 3.202,0 5.793,-2.597 5.793,-5.795"
         style="fill:#df834d;fill-opacity:1;fill-rule:nonzero;stroke:none"
         id="path994"
         inkscape:connector-curvature="0" /><path
         d="m 308.842,673.646 c 0,-0.183 -0.15,-0.337 -0.336,-0.337 -0.184,0 -0.335,0.154 -0.335,0.337 0,0.185 0.151,0.333 0.335,0.333 0.186,0 0.336,-0.148 0.336,-0.333"
         style="fill:#a6aabe;fill-opacity:1;fill-rule:nonzero;stroke:none"
         id="path996"
         inkscape:connector-curvature="0" /><path
         d="m 308.615,673.733 c 0,-0.087 -0.078,-0.161 -0.172,-0.161 -0.09,0 -0.166,0.074 -0.166,0.161 0,0.09 0.076,0.16 0.166,0.16 0.094,0 0.172,-0.07 0.172,-0.16"
         style="fill:#fddfb0;fill-opacity:1;fill-rule:nonzero;stroke:none"
         id="path998"
         inkscape:connector-curvature="0" /><path
         d="m 308.842,660.265 c 0,-0.186 -0.15,-0.335 -0.336,-0.335 -0.184,0 -0.335,0.149 -0.335,0.335 0,0.183 0.151,0.337 0.335,0.337 0.186,0 0.336,-0.154 0.336,-0.337"
         style="fill:#a6aabe;fill-opacity:1;fill-rule:nonzero;stroke:none"
         id="path1000"
         inkscape:connector-curvature="0" /><path
         d="m 308.615,660.352 c 0,-0.087 -0.078,-0.157 -0.172,-0.157 -0.09,0 -0.166,0.07 -0.166,0.157 0,0.089 0.076,0.163 0.166,0.163 0.094,0 0.172,-0.074 0.172,-0.163"
         style="fill:#fddfb0;fill-opacity:1;fill-rule:nonzero;stroke:none"
         id="path1002"
         inkscape:connector-curvature="0" /><path
         d="m 315.195,666.622 c 0.187,0 0.336,0.149 0.336,0.335 0,0.183 -0.149,0.335 -0.336,0.335 -0.185,0 -0.333,-0.152 -0.333,-0.335 0,-0.186 0.148,-0.335 0.333,-0.335"
         style="fill:#a6aabe;fill-opacity:1;fill-rule:nonzero;stroke:none"
         id="path1004"
         inkscape:connector-curvature="0" /><path
         d="m 315.108,666.851 c 0.092,0 0.162,0.073 0.162,0.167 0,0.09 -0.07,0.169 -0.162,0.169 -0.087,0 -0.16,-0.079 -0.16,-0.169 0,-0.094 0.073,-0.167 0.16,-0.167"
         style="fill:#fddfb0;fill-opacity:1;fill-rule:nonzero;stroke:none"
         id="path1006"
         inkscape:connector-curvature="0" /><path
         d="m 301.815,666.622 c 0.185,0 0.336,0.149 0.336,0.335 0,0.183 -0.151,0.335 -0.336,0.335 -0.184,0 -0.333,-0.152 -0.333,-0.335 0,-0.186 0.149,-0.335 0.333,-0.335"
         style="fill:#a6aabe;fill-opacity:1;fill-rule:nonzero;stroke:none"
         id="path1008"
         inkscape:connector-curvature="0" /><path
         d="m 301.73,666.851 c 0.085,0 0.16,0.073 0.16,0.167 0,0.09 -0.075,0.169 -0.16,0.169 -0.088,0 -0.162,-0.079 -0.162,-0.169 0,-0.094 0.074,-0.167 0.162,-0.167"
         style="fill:#fddfb0;fill-opacity:1;fill-rule:nonzero;stroke:none"
         id="path1010"
         inkscape:connector-curvature="0" /><path
         d="m 313.238,661.889 c 0.184,0 0.335,0.15 0.335,0.338 0,0.183 -0.151,0.334 -0.335,0.334 -0.186,0 -0.336,-0.151 -0.336,-0.334 0,-0.188 0.15,-0.338 0.336,-0.338"
         style="fill:#a6aabe;fill-opacity:1;fill-rule:nonzero;stroke:none"
         id="path1012"
         inkscape:connector-curvature="0" /><path
         d="m 313.151,662.119 c 0.087,0 0.16,0.076 0.16,0.17 l -0.16,0.166 -0.16,-0.166 c 0,-0.094 0.072,-0.17 0.16,-0.17"
         style="fill:#fddfb0;fill-opacity:1;fill-rule:nonzero;stroke:none"
         id="path1014"
         inkscape:connector-curvature="0" /><path
         d="m 303.775,661.889 c 0.189,0 0.335,0.15 0.335,0.338 0,0.183 -0.146,0.334 -0.335,0.334 -0.186,0 -0.334,-0.151 -0.334,-0.334 0,-0.188 0.148,-0.338 0.334,-0.338"
         style="fill:#a6aabe;fill-opacity:1;fill-rule:nonzero;stroke:none"
         id="path1016"
         inkscape:connector-curvature="0" /><path
         d="m 303.692,662.119 c 0.083,0 0.156,0.076 0.156,0.17 l -0.156,0.166 c -0.09,0 -0.162,-0.076 -0.162,-0.166 0,-0.094 0.072,-0.17 0.162,-0.17"
         style="fill:#fddfb0;fill-opacity:1;fill-rule:nonzero;stroke:none"
         id="path1018"
         inkscape:connector-curvature="0" /><path
         d="m 313.238,671.351 c 0.184,0 0.335,0.148 0.335,0.337 0,0.182 -0.151,0.333 -0.335,0.333 -0.186,0 -0.336,-0.151 -0.336,-0.333 0,-0.189 0.15,-0.337 0.336,-0.337"
         style="fill:#a6aabe;fill-opacity:1;fill-rule:nonzero;stroke:none"
         id="path1020"
         inkscape:connector-curvature="0" /><path
         d="m 313.151,671.581 c 0.087,0 0.16,0.074 0.16,0.166 0,0.094 -0.073,0.17 -0.16,0.17 -0.088,0 -0.16,-0.076 -0.16,-0.17 0,-0.092 0.072,-0.166 0.16,-0.166"
         style="fill:#fddfb0;fill-opacity:1;fill-rule:nonzero;stroke:none"
         id="path1022"
         inkscape:connector-curvature="0" /><path
         d="m 303.775,671.351 c 0.189,0 0.335,0.148 0.335,0.337 0,0.182 -0.146,0.333 -0.335,0.333 -0.186,0 -0.334,-0.151 -0.334,-0.333 0,-0.189 0.148,-0.337 0.334,-0.337"
         style="fill:#a6aabe;fill-opacity:1;fill-rule:nonzero;stroke:none"
         id="path1024"
         inkscape:connector-curvature="0" /><path
         d="m 303.692,671.581 c 0.083,0 0.156,0.074 0.156,0.166 0,0.094 -0.073,0.17 -0.156,0.17 -0.09,0 -0.162,-0.076 -0.162,-0.17 0,-0.092 0.072,-0.166 0.162,-0.166"
         style="fill:#fddfb0;fill-opacity:1;fill-rule:nonzero;stroke:none"
         id="path1026"
         inkscape:connector-curvature="0" /><path
         d="m 313.852,666.962 c 0,-2.952 -2.392,-5.348 -5.346,-5.348 -2.95,0 -5.346,2.396 -5.346,5.348 0,2.956 2.396,5.348 5.346,5.348 2.954,0 5.346,-2.392 5.346,-5.348"
         style="fill:#3a575b;fill-opacity:1;fill-rule:nonzero;stroke:none"
         id="path1028"
         inkscape:connector-curvature="0" /><path
         d="m 312.322,663.219 -7.516,7.601 c -0.305,-0.288 -0.571,-0.614 -0.801,-0.968 l 7.341,-7.42 c 0.355,0.221 0.684,0.489 0.976,0.787"
         style="fill:#4a6761;fill-opacity:1;fill-rule:nonzero;stroke:none"
         id="path1030"
         inkscape:connector-curvature="0" /><path
         d="m 303.186,667.465 5.763,-5.833 c 0.654,0.058 1.271,0.225 1.837,0.494 l -7.091,7.169 c -0.273,-0.562 -0.451,-1.18 -0.509,-1.83"
         style="fill:#4a6761;fill-opacity:1;fill-rule:nonzero;stroke:none"
         id="path1032"
         inkscape:connector-curvature="0" /><path
         d="m 325.25,744.751 -33.187,0 -0.308,-0.584 33.803,0 -0.308,0.584"
         style="fill:#2f4e62;fill-opacity:1;fill-rule:nonzero;stroke:none"
         id="path1034"
         inkscape:connector-curvature="0" /></g></g></svg>